<?xml version="1.0" encoding="UTF-8"?>
<svg width="24px" height="22px" viewBox="0 0 24 22" version="1.1" xmlns="http://www.w3.org/2000/svg" xmlns:xlink="http://www.w3.org/1999/xlink">
    <title>wallet</title>
    <g id="Page-1" stroke="none" stroke-width="1" fill="none" fill-rule="evenodd" stroke-linecap="round" stroke-linejoin="round">
        <g id="wallet" stroke="#000000">
            <path d="M17.005,12.75 C17.1430712,12.75 17.255,12.8619288 17.255,13 C17.255,13.1380712 17.1430712,13.25 17.005,13.25 C16.8669288,13.25 16.755,13.1380712 16.755,13 C16.755,12.8619288 16.8669288,12.75 17.005,12.75" id="Path"></path>
            <path d="M20.505,10.5 L20.505,7.5 C20.5000578,5.8451972 19.1598028,4.5049422 17.505,4.5 L3.505,4.5" id="Path"></path>
            <path d="M15.505,2.5 L3.505,2.5 C2.95271525,2.5 2.505,2.94771525 2.505,3.5 C2.505,4.05228475 2.95271525,4.5 3.505,4.5" id="Path"></path>
            <path d="M20.505,15.5 L20.505,18.5 C20.5000578,20.1548028 19.1598028,21.4950578 17.505,21.5 L3.505,21.5 C1.8501972,21.4950578 0.509942202,20.1548028 0.505,18.5 L0.505,3.5 C0.509942202,1.8451972 1.8501972,0.504942202 3.505,0.5 L15.505,0.5 C17.155,0.5 18.505,1.4 18.505,2.5 L18.505,4.672" id="Path"></path>
            <rect id="Rectangle" x="14.503" y="10.5" width="9" height="5" rx="2"></rect>
        </g>
    </g>
</svg>