<?xml version="1.0" encoding="UTF-8"?>
<svg width="800px" height="500px" viewBox="0 0 800 500" version="1.1" xmlns="http://www.w3.org/2000/svg" xmlns:xlink="http://www.w3.org/1999/xlink">
    <!-- Generator: Sketch 54.1 (76490) - https://sketchapp.com -->
    <title>idex</title>
    <desc>Created with Sketch.</desc>
    <g id="Page-1" stroke="none" stroke-width="1" fill="none" fill-rule="evenodd">
        <g id="idex">
            <rect id="Rectangle" fill="#FFFFFF" x="0" y="0" width="800" height="500"></rect>
            <g id="idex-logo" transform="translate(107.000000, 172.000000)" fill-rule="nonzero">
                <g id="_Group_2">
                    <g id="_Group_3">
                        <path d="M79,0 C110.623201,0.00179042023 139.115933,19.09694 151.1386,48.3455695 C163.161267,77.594199 156.334376,111.207501 133.854109,133.448555 C111.373842,155.689608 77.6894322,162.156526 48.5710905,149.821655 C19.4527488,137.486785 0.663496757,108.791411 1,77.17 C1.42,34.64 36.18,-0.11 79,0 Z M80.66,5.66 C39.24,5.67 6.88,38 6.71,77.55 C6.53,117.49 39,150.35 79,150.21 C98.81,150.14 115.92,143.13 129.92,129.16 C145.85,113.27 152.83,93.78 151.01,71.46 C149.731351,54.5970682 142.329828,38.7839164 130.2,27 C116.09,13 98.93,5.92 80.64,5.66 L80.66,5.66 Z" id="_Compound_Path_" fill="#333333"></path>
                        <path d="M149.08,70.34 C147.583058,54.4317767 140.496995,39.5687581 129.08,28.39 C115.27,14.53 98.44,7.49 78.82,7.46 C40.5286122,8.23547395 9.85592749,39.4314509 9.72826407,77.7304775 C9.60060065,116.029504 40.0646329,147.42927 78.35,148.46 C97.89,148.6 114.84,141.76 128.64,127.94 C144.49,112.08 151.33,92.71 149.08,70.34 Z M109.45,23.13 C110.321147,23.1465453 111.096176,23.6872259 111.41249,24.4990855 C111.728805,25.3109451 111.523855,26.2334421 110.893527,26.834988 C110.263199,27.4365339 109.332137,27.5981757 108.535936,27.2442897 C107.739736,26.8904037 107.235842,26.0909691 107.26,25.22 C107.298049,24.0427493 108.272257,23.113026 109.45,23.13 Z M99.8,18.64 C101.016642,18.6455052 102.000012,19.6333453 102,20.85 C101.961906,22.0296651 100.979946,22.9580633 99.8,22.93 C99.2308175,22.9385349 98.683008,22.7134212 98.2842871,22.3071415 C97.8855661,21.9008619 97.6707787,21.3489219 97.69,20.78 C97.695231,19.6119271 98.6321173,18.6617201 99.8,18.64 L99.8,18.64 Z M89.64,15.88 C90.7742309,15.9912867 91.6819389,16.8699813 91.83,18 C91.7450952,19.2356035 90.7083736,20.1888603 89.47,20.17 C88.3022075,20.1320152 87.3785135,19.1683537 87.39,18 C87.4439173,16.8014397 88.4403541,15.8625747 89.64,15.88 Z M79,15 C80.18056,14.994535 81.1425398,15.9461486 81.1498651,17.1266985 C81.1571905,18.3072484 80.207094,19.2707266 79.0265571,19.2799123 C77.8460202,19.289098 76.881046,18.3405209 76.87,17.16 C76.8698861,15.9786831 77.8187971,15.0164072 79,15 Z M68.49,15.89 C69.6276181,15.9543115 70.5356885,16.8623819 70.6,18 C70.5976938,18.5826137 70.3590394,19.1393471 69.9386706,19.5427502 C69.5183019,19.9461534 68.9522146,20.1616834 68.37,20.14 C67.8077331,20.1347206 67.2705954,19.9062849 66.8767636,19.5049516 C66.4829318,19.1036183 66.2646706,18.5622664 66.27,18 C66.3177434,16.8262602 67.275385,15.8949757 68.45,15.88 L68.49,15.89 Z M58.21,18.64 C59.3895851,18.6564476 60.3356016,19.6203135 60.33,20.8 C60.3437485,21.3672703 60.1251426,21.9155324 59.7248493,22.3177139 C59.324556,22.7198953 58.7773288,22.9410788 58.21,22.93 C57.6242182,22.9464141 57.0571184,22.7230081 56.6399236,22.3114766 C56.2227287,21.899945 55.9915932,21.3359515 56,20.75 C56.0584873,19.5709421 57.0294987,18.6438679 58.21,18.64 L58.21,18.64 Z M48.55,23.13 C49.3512918,23.0752568 50.1162862,23.4716985 50.5335761,24.1579452 C50.950866,24.8441919 50.950866,25.7058081 50.5335761,26.3920548 C50.1162862,27.0783015 49.3512918,27.4747432 48.55,27.42 C47.4220939,27.342943 46.5465435,26.4055353 46.5465435,25.275 C46.5465435,24.1444647 47.4220939,23.207057 48.55,23.13 L48.55,23.13 Z M39.92,29.2 C41.0983679,29.2268039 42.0441586,30.1814337 42.06,31.36 C42.0545261,32.5396145 41.0996145,33.4945261 39.92,33.5 C39.3520904,33.5247472 38.7989947,33.3148598 38.3904759,32.91958 C37.981957,32.5243002 37.7539688,31.9784166 37.76,31.41 C37.7379905,30.8261135 37.9568086,30.2588228 38.3652179,29.8409596 C38.7736273,29.4230963 39.3357627,29.1913557 39.92,29.2 L39.92,29.2 Z M32.46,36.69 C33.6388392,36.7387142 34.5627544,37.7203742 34.54,38.9 C34.5127056,40.0756588 33.5459217,41.0112561 32.37,41 C31.1921001,40.9683013 30.2462325,40.0180343 30.22,38.84 C30.2681637,37.6420281 31.2510683,36.6943846 32.45,36.69 L32.46,36.69 Z M26.33,45.41 C26.8973288,45.3989212 27.444556,45.6201047 27.8448493,46.0222861 C28.2451426,46.4244676 28.4637485,46.9727297 28.45,47.54 C28.4612551,48.7214436 27.5211818,49.6927041 26.34,49.72 C25.1301101,49.6984974 24.1560154,48.719975 24.14,47.51 C24.1779051,46.3350737 25.1444779,45.4039715 26.32,45.41 L26.33,45.41 Z M21.85,55 C22.4343784,55.0050813 22.9920054,55.2456527 23.3966821,55.6672694 C23.8013589,56.0888861 24.0188737,56.6559044 24,57.24 C23.8958365,58.3824191 22.9204847,59.2464094 21.7738434,59.2119837 C20.6272022,59.177558 19.7054398,58.2566104 19.67,57.11 C19.712916,55.9357144 20.6749394,55.0045817 21.85,55 Z M19.05,65.23 C20.2605552,65.2353426 21.2436528,66.2095434 21.26,67.42 C21.2273408,68.5972504 20.2576485,69.5313576 19.08,69.52 C18.5222685,69.5227987 17.9870066,69.3004141 17.5954597,68.9032198 C17.2039128,68.5060256 16.9892154,67.9676342 17,67.41 C16.982887,66.2470545 17.8977369,65.2833534 19.06,65.24 L19.05,65.23 Z M16,78 C16.0254672,76.8221222 16.9627957,75.8672735 18.14,75.82 C18.7075707,75.8146708 19.2540095,76.0350393 19.6590935,76.4326217 C20.0641775,76.8302042 20.2947204,77.3724289 20.3,77.94 C20.3264549,78.5391406 20.0979085,79.1214544 19.6709901,79.5426551 C19.2440717,79.9638558 18.6587295,80.1845304 18.06,80.15 C16.9211336,80.0728772 16.0283819,79.1411218 16,78 Z M17,88.55 C16.9943984,87.3703135 17.9404149,86.4064476 19.12,86.39 C20.3282061,86.4116285 21.2993559,87.3916472 21.31,88.6 C21.271906,89.7796651 20.2899463,90.7080633 19.11,90.68 C18.5390706,90.6944152 17.9877789,90.4711659 17.5877517,90.0635553 C17.1877246,89.6559447 16.9748666,89.100558 17,88.53 L17,88.55 Z M21.9,100.93 C20.7183924,100.952499 19.7380856,100.021208 19.7,98.84 C19.7105041,97.6299299 20.6801848,96.6469659 21.89,96.62 C23.0463578,96.6768337 23.9648901,97.6127789 24,98.77 C23.9945261,99.9496145 23.0396145,100.904526 21.86,100.91 L21.9,100.93 Z M26.37,110.56 C25.1933012,110.550079 24.2327487,109.615964 24.19,108.44 C24.1872075,107.858402 24.4190753,107.300253 24.8331454,106.891829 C25.2472156,106.483406 25.8084951,106.259223 26.39,106.27 C26.9582519,106.258688 27.5061567,106.481526 27.9052042,106.886247 C28.3042518,107.290968 28.5193326,107.841964 28.5,108.41 C28.5001581,108.983682 28.2688975,109.533173 27.8585648,109.934094 C27.4482321,110.335016 26.8935238,110.553467 26.32,110.54 L26.37,110.56 Z M26.37,93.76 L26.48,93.37 L49.28,93.37 C55.2,93.37 55.2,93.37 55.2,87.37 C55.2,82.37 55.25,77.37 55.2,72.37 C55.2,70.74 55.42,69.98 57.37,70.06 C61.66,70.24 65.97,70.18 70.26,70.06 C71.76,70.06 72.26,70.52 72.26,71.99 C72.2133333,80.3833333 72.2133333,88.78 72.26,97.18 C72.26,98.78 71.76,99.59 70.07,99.43 C69.5780214,99.3782953 69.0819786,99.3782953 68.59,99.43 C66.66,99.64 66,98.89 66,97 C66.09,90.93 66,84.87 66,78.8 C66,77.13 65.48,76.36 63.69,76.36 C61.9,76.36 61.31,76.92 61.34,78.7 C61.42,84.77 61.34,90.84 61.41,96.9 C61.41,98.9 60.8,99.46 58.87,99.43 C52.73,99.33 46.57,99.71 40.47,99.26 C37.59,99.05 34.8,97.43 32.01,96.33 C30.12,95.59 28.24,94.62 26.33,93.74 L26.37,93.76 Z M32.68,119.28 C32.0395239,119.353396 31.398928,119.143473 30.926109,118.705251 C30.4532901,118.267028 30.1953889,117.644198 30.22,117 C30.2920698,115.794679 31.2730088,114.844123 32.48,114.81 C33.6824708,114.972155 34.5986607,115.968196 34.66,117.18 C34.4884838,118.22979 33.6833406,119.062834 32.64,119.27 L32.68,119.28 Z M39.88,126.71 C39.3132283,126.710662 38.7709746,126.4789 38.3797671,126.068794 C37.9885595,125.658687 37.7826193,125.10611 37.81,124.54 C37.8264072,123.358797 38.7886831,122.409886 39.97,122.41 C41.1455987,122.452109 42.0842595,123.403929 42.11,124.58 C42.1057566,125.169193 41.8587734,125.730569 41.4272751,126.131786 C40.9957769,126.533004 40.417945,126.738562 39.83,126.7 L39.88,126.71 Z M48.66,132.8 C48.0919705,132.821759 47.5395833,132.611207 47.130155,132.216873 C46.7207267,131.822538 46.4895834,131.278446 46.49,130.71 C46.4710862,130.126834 46.6889024,129.560821 47.0938767,129.140778 C47.4988511,128.720735 48.0565322,128.482395 48.64,128.48 C49.8161672,128.511902 50.7590399,129.463587 50.78,130.64 C50.7855048,131.215371 50.5579924,131.768492 50.149246,132.173472 C49.7404996,132.578451 49.185295,132.800832 48.61,132.79 L48.66,132.8 Z M58.28,137.27 C57.686639,137.303016 57.1058873,137.090106 56.674469,136.681394 C56.2430506,136.272682 55.9990822,135.704278 56,135.11 C56.0672572,133.946714 57.0151387,133.029269 58.18,133 C59.3612684,133.005418 60.3190746,133.95877 60.33,135.14 C60.3408374,135.702034 60.1237262,136.244524 59.7281226,136.643895 C59.3325191,137.043266 58.7921114,137.26551 58.23,137.26 L58.28,137.27 Z M50.14,104.78 C48.24,104.02 46.42,103.06 44.56,102.19 L44.79,101.58 C54.5166667,101.58 64.2466667,101.58 73.98,101.58 C78.5,101.58 77.92,101.98 77.93,97.58 C77.93,84.53 77.98,71.47 77.93,58.42 C77.93,56.27 78.52,55.62 80.67,55.7 C84.83,55.86 88.99,55.8 93.16,55.7 C94.66,55.7 95.33,56.09 95.33,57.7 C95.2966667,73.86 95.2966667,90.0166667 95.33,106.17 C95.33,107.91 94.59,108.45 92.99,108.17 C92.4470706,108.028168 91.8906201,107.944365 91.33,107.92 C88.68,108.01 88.67,108.03 88.67,105.25 C88.67,91.9166667 88.67,78.5833333 88.67,65.25 C88.67,64.15 89.09,62.73 87.26,62.44 C85.12,62.1 84.48,62.6 84.48,64.84 C84.48,78.3866667 84.48,91.9333333 84.48,105.48 C84.48,108.24 84.48,108.25 81.64,108.25 C74.58,108.25 67.53,108.15 60.47,108.25 C56.43,108.41 53.45,106.12 50.09,104.78 L50.14,104.78 Z M68.49,140 C67.9087064,140.021746 67.3436071,139.805919 66.9248062,139.40221 C66.5060054,138.998501 66.2695934,138.4417 66.27,137.86 C66.27,136.661542 67.2415421,135.69 68.44,135.69 C69.6384579,135.69 70.61,136.661542 70.61,137.86 C70.5993687,139.029699 69.6595476,139.978386 68.49,140 Z M79,141 C77.7888534,140.978091 76.8232835,139.981229 76.84,138.77 C76.8729648,137.578613 77.8606335,136.63679 79.0522416,136.660447 C80.2438497,136.684103 81.1933595,137.664384 81.1790126,138.856141 C81.1646657,140.047898 80.1918323,141.005036 79,141 Z M89.4,140 C88.2559474,139.920242 87.3758868,138.956576 87.4,137.81 C87.4285812,137.034734 87.868591,136.333606 88.554282,135.970725 C89.239973,135.607844 90.0671723,135.638339 90.7242821,136.050725 C91.3813918,136.46311 91.7685813,137.194734 91.74,137.97 C91.7125374,138.554649 91.4468103,139.102537 91.0046972,139.48608 C90.5625841,139.869622 89.9826713,140.055345 89.4,140 L89.4,140 Z M99.79,137.26 C99.2208885,137.271187 98.6720581,137.048648 98.2714519,136.644263 C97.8708457,136.239877 97.6534702,135.688981 97.67,135.12 C97.6964275,133.960279 98.6302793,133.026428 99.79,133 C100.99598,133.026822 101.964143,134.003826 101.98,135.21 C101.926035,136.373842 100.954867,137.282927 99.79,137.26 L99.79,137.26 Z M109.44,132.78 C108.872581,132.79341 108.32348,132.578734 107.915618,132.184028 C107.507755,131.789323 107.275196,131.247554 107.27,130.68 C107.264445,129.468845 108.238883,128.480998 109.45,128.47 C110.631182,128.497296 111.571255,129.468556 111.56,130.65 C111.573746,131.219922 111.354086,131.770727 110.951918,132.174783 C110.54975,132.578839 109.999981,132.801077 109.43,132.79 L109.44,132.78 Z M111.25,112.15 C111.57,108.97 111.11,64.28 111.12,50.73 C111.12,49.42 111.26,48.2 109.25,48.23 C107.63,48.23 107.25,48.82 107.25,50.35 C107.31,57.4 107.14,110.03 107.14,110.03 C107.14,110.03 107.14,114.36 107.14,116.65 C106.39,116.73 105.78,116.84 105.14,116.85 C95.98,116.85 86.81,117.03 77.66,116.75 C75.36,116.68 73.07,115.22 70.83,114.28 C68.229035,113.241267 65.7369531,111.948332 63.39,110.42 C63.99,110.42 64.59,110.31 65.19,110.31 L95.87,110.44 C100.57,110.44 100.5,110.44 100.5,105.92 C100.5,85.32 100.5,64.72 100.5,44.11 C100.5,42.38 100.89,41.58 102.85,41.64 C107.29,41.78 111.74,41.73 116.18,41.64 C117.67,41.64 118.18,42.15 118.18,43.64 C118.18,59.0933333 118.18,74.5433333 118.18,89.99 C118.18,97.99 118.18,105.99 118.18,113.99 C118.18,116.84 118.18,116.84 115.24,116.85 C110.7,116.89 110.77,116.77 111.24,112.16 L111.25,112.15 Z M118.1,126.69 C116.921948,126.701125 115.956463,125.757989 115.94,124.58 C115.956347,123.369543 116.939445,122.395343 118.15,122.39 C119.329627,122.42272 120.262409,123.400132 120.24,124.58 C120.257245,125.152642 120.035242,125.706599 119.627304,126.108846 C119.219365,126.511092 118.662343,126.725289 118.09,126.7 L118.1,126.69 Z M118.17,33.49 C117.587785,33.5116834 117.021698,33.2961534 116.601329,32.8927502 C116.180961,32.4893471 115.942306,31.9326137 115.94,31.35 C115.96096,30.173587 116.903833,29.2219024 118.08,29.19 C119.258018,29.1844439 120.219003,30.1320198 120.23,31.31 C120.26307,31.8794777 120.059669,32.4373609 119.667827,32.8519186 C119.275985,33.2664763 118.730436,33.5009594 118.16,33.5 L118.17,33.49 Z M125.57,119.21 C124.385349,119.21 123.425,118.249651 123.425,117.065 C123.425,115.880349 124.385349,114.92 125.57,114.92 C126.754651,114.92 127.715,115.880349 127.715,117.065 C127.715,118.249651 126.754651,119.21 125.57,119.21 Z M125.57,41.03 C124.371542,41.03 123.4,40.0584579 123.4,38.86 C123.4,37.6615421 124.371542,36.69 125.57,36.69 C126.768458,36.69 127.74,37.6615421 127.74,38.86 C127.74,40.0584579 126.768458,41.03 125.57,41.03 L125.57,41.03 Z M141,67.43 C141.011312,67.9982519 140.788474,68.5461567 140.383753,68.9452042 C139.979032,69.3442518 139.428036,69.5593326 138.86,69.54 C137.676425,69.551125 136.706463,68.6035123 136.69,67.42 C136.70035,66.8214117 136.95095,66.2521244 137.385413,65.8402305 C137.819877,65.4283365 138.401711,65.2084333 139,65.23 C140.148006,65.309908 141.02954,66.279596 141,67.43 Z M131.66,45.43 C132.839117,45.4352336 133.798277,46.3810716 133.82,47.56 C133.787732,48.7658983 132.806286,49.7296608 131.6,49.74 C130.422737,49.6965851 129.497384,48.7178465 129.52,47.54 C129.505423,46.9619503 129.732129,46.4039207 130.145717,45.9998184 C130.559305,45.5957161 131.122444,45.3820165 131.7,45.41 L131.66,45.43 Z M131.66,110.56 C131.093352,110.560006 130.550057,110.334224 130.150316,109.932606 C129.750575,109.530988 129.52734,108.986642 129.53,108.42 C129.507967,107.852029 129.720453,107.299987 130.117616,106.893369 C130.514778,106.48675 131.061668,106.261335 131.63,106.27 C132.211481,106.256536 132.773819,106.478149 133.189776,106.884696 C133.605734,107.291243 133.840156,107.848363 133.84,108.43 C133.792501,109.594418 132.845211,110.51978 131.68,110.54 L131.66,110.56 Z M136.14,55 C137.318938,54.9992131 138.286934,55.9318484 138.33,57.11 C138.33,58.3084579 137.358458,59.28 136.16,59.28 C134.961542,59.28 133.99,58.3084579 133.99,57.11 C134.027326,55.9449849 134.974489,55.0154428 136.14,55 Z M136.21,100.91 C135.029967,100.943744 134.043444,100.019716 134,98.84 C133.930994,98.0341743 134.315853,97.2568396 134.998533,96.8231745 C135.681212,96.3895093 136.548416,96.3714843 137.248525,96.7764079 C137.948635,97.1813314 138.365462,97.9420029 138.33,98.75 C138.330202,99.9274871 137.387285,100.888195 136.21,100.91 L136.21,100.91 Z M138.86,90.66 C137.68493,90.6383842 136.740633,89.6852209 136.73,88.51 C136.773463,87.2956244 137.785173,86.3418541 139,86.37 C140.15598,86.4501353 141.040501,87.431954 141,88.59 C141.000321,89.1513444 140.77265,89.6887498 140.369175,90.0790266 C139.965701,90.4693033 139.421023,90.6789828 138.86,90.66 L138.86,90.66 Z M139.86,80.1 C139.290332,80.1248597 138.735638,79.9136287 138.326801,79.5161477 C137.917963,79.1186667 137.691194,78.5701419 137.7,78 C137.644255,77.447841 137.820441,76.897344 138.186426,76.4801599 C138.55241,76.0629757 139.075283,75.8166169 139.63,75.8 C140.249216,75.7562072 140.859681,75.9656755 141.321559,76.3804229 C141.783437,76.7951702 142.05715,77.3796579 142.08,78 C142.080316,78.5692978 141.849484,79.1143296 141.440385,79.5102315 C141.031287,79.9061334 140.478982,80.1189767 139.91,80.1 L139.86,80.1 Z" id="_Compound_Path_2" fill="#004B6A"></path>
                    </g>
                </g>
                <g id="_Group_4" transform="translate(176.000000, 27.000000)">
                    <polygon id="_Compound_Path_3" fill="#004B6A" points="20.55 113 0.24 113 0.24 1 20.55 1"></polygon>
                    <path d="M156.1,66.14 C156.173762,72.6003662 154.963686,79.0110501 152.54,85 C148.040235,96.2145728 139.126398,105.085016 127.89,109.53 C121.953637,111.897042 115.610424,113.075989 109.22,113 L54.38,113 C52.9882025,113.013239 51.6078079,112.74804 50.32,112.22 C47.8682935,111.226263 45.9237365,109.281707 44.93,106.83 C44.4019599,105.542192 44.136761,104.161798 44.15,102.77 L44.15,11.21 C44.1393724,9.83787353 44.4046246,8.47760589 44.93,7.21 C45.4312983,5.98975188 46.1610379,4.8764746 47.08,3.93 C47.9990298,2.98630135 49.1017163,2.24096695 50.32,1.74 C51.6081155,1.21299346 52.9882998,0.947834906 54.38,0.96 L109.22,0.96 C115.61375,0.899902256 121.957081,2.09585974 127.89,4.48 C139.134256,8.93414631 148.049325,17.8202828 152.54,29.05 C154.948631,35.0185978 156.155037,41.4040513 156.09,47.84 L156.1,66.14 Z M135.78,47.86 C135.825859,44.1525886 135.17806,40.4692911 133.87,37 C132.676539,33.8464258 130.82553,30.982987 128.44,28.6 C126.038599,26.2471244 123.179525,24.4125524 120.04,23.21 C116.585211,21.8997591 112.914588,21.2518026 109.22,21.3 L64.45,21.3 L64.45,92.7 L109.22,92.7 C112.901245,92.7441257 116.558009,92.0962203 120,90.79 C123.140301,89.5889819 125.99967,87.7542199 128.4,85.4 C130.779614,83.0276972 132.630167,80.1785956 133.83,77.04 C135.145287,73.558787 135.793244,69.8610198 135.74,66.14 L135.78,47.86 Z" id="_Compound_Path_4" fill="#004B6A"></path>
                    <path d="M277.27,113 L204,113 C200.871508,112.952365 197.766228,112.453903 194.78,111.52 C187.667852,109.399884 181.745321,104.439719 178.41,97.81 C176.391993,93.6674664 175.413779,89.0956004 175.56,84.49 L175.56,11.21 C175.549372,9.83787353 175.814625,8.47760589 176.34,7.21 C176.841298,5.98975188 177.571038,4.8764746 178.49,3.93 C179.408847,2.98608286 180.511582,2.24071593 181.73,1.74 C183.018116,1.21299346 184.3983,0.947834906 185.79,0.96 L277.27,0.959599611 L277.27,21.29 L195.86,21.29 L195.86,84.49 C195.708486,86.7221244 196.470008,88.920072 197.97,90.58 C199.376667,91.9866667 201.433333,92.69 204.14,92.69 L277.27,92.69 L277.27,113 Z M268.13,67.22 L204,67.22 L204,46.76 L268.14,46.76 L268.13,67.22 Z" id="_Compound_Path_5" fill="#333333"></path>
                    <polygon id="_Compound_Path_6" fill="#333333" points="348 41 382.22 1 410 1 361.8 57.15 409.69 113 382.11 113 348 73.32 314.14 113 286.49 113 334.3 57.15 286.33 1 313.83 1"></polygon>
                </g>
            </g>
        </g>
    </g>
</svg>