<?xml version="1.0" encoding="UTF-8"?>
<svg width="348px" height="50px" viewBox="0 0 348 50" version="1.1" xmlns="http://www.w3.org/2000/svg" xmlns:xlink="http://www.w3.org/1999/xlink">
    <title>tradeconnect-logo</title>
    <g id="Page-1" stroke="none" stroke-width="1" fill="none" fill-rule="evenodd">
        <g id="tradeconnect-logo" fill="#011F4A" fill-rule="nonzero">
            <polygon id="Path" points="97.7306399 17.1718855 88.5841753 17.1718855 88.5841753 40.9093014 82.9947389 40.9093014 82.9947389 17.1718855 73.8484848 17.1718855 73.8484848 12.2897307 97.8998318 12.2897307"></polygon>
            <path d="M109.078704,24.5784933 C107.38489,24.5784933 106.029882,24.9151936 104.674874,25.5885943 C103.319865,26.2619949 102.473064,27.1037458 101.795455,28.282197 L101.795455,41.0768097 L96.3754207,41.0768097 L96.3754207,19.8646675 L101.287458,19.8646675 L101.287458,24.4101431 C101.626052,23.7367424 102.134259,23.0633418 102.642466,22.3899411 C103.150463,21.8848906 103.65867,21.3798401 104.336069,20.8747895 C104.844276,20.369718 105.521675,20.0330177 106.199284,19.8646675 C106.876683,19.6963173 107.38489,19.5279672 107.893097,19.5279672 L108.570496,19.5279672 C108.739899,19.5279672 108.909302,19.5279672 109.078704,19.5279672 L109.078704,24.5784933 Z M119.07197,37.3731061 C119.918771,37.3731061 120.934975,37.2047559 121.612584,36.8680556 C122.459385,36.5313552 123.136995,36.1946549 123.475799,35.5212542 C124.153198,35.0162037 124.322601,34.5111532 124.322601,34.0061027 L124.322601,31.6492004 C123.644991,31.3125 122.967592,31.1441498 122.289983,31.1441498 C121.612584,30.9757996 120.765572,30.9757996 120.088173,30.9757996 C118.733165,30.9757996 117.547559,31.3125 116.700547,31.9859007 C115.853746,32.6593014 115.345539,33.5010522 115.345539,34.342803 C115.345539,35.1845539 115.684343,36.0263047 116.361953,36.6997054 C117.208754,37.2047559 118.055556,37.3731061 119.07197,37.3731061 Z M117.547559,41.4135101 C116.531355,41.4135101 115.514941,41.2451599 114.66814,40.9084596 C113.821128,40.5717592 112.974327,40.0667087 112.296928,39.5616582 C111.619318,38.8882576 111.111111,38.2148569 110.772517,37.3731061 C110.433712,36.5313552 110.26431,35.6896044 110.26431,34.6795034 C110.26431,33.6694024 110.433712,32.8276515 110.941919,31.9859007 C111.449916,31.1441498 111.958123,30.4707491 112.804924,29.7973485 C113.651936,29.1239478 114.498737,28.7872475 115.684343,28.4505471 C116.869949,28.1138468 118.055556,27.9454966 119.410564,27.9454966 C120.426978,27.9454966 121.273779,27.9454966 122.120581,28.1138468 C122.967592,28.282197 123.814394,28.4505471 124.492004,28.7872475 L124.492004,27.6087963 C124.492004,26.2619949 124.153198,25.0835438 123.306397,24.4101431 C122.459385,23.7367424 121.273779,23.2316919 119.749369,23.2316919 C118.563763,23.2316919 117.547559,23.4000421 116.361953,23.9050926 C115.176136,24.4101431 113.99053,24.9151936 112.974327,25.7569444 L111.280514,22.3899411 C113.99053,20.5380682 117.039352,19.6963173 120.088173,19.6963173 C123.136995,19.6963173 125.508207,20.369718 127.20202,21.8848906 C128.895833,23.4000421 129.742635,25.5885943 129.742635,28.4505471 L129.742635,35.0162037 C129.742635,35.5212542 129.912037,36.0263047 130.081439,36.1946549 C130.250842,36.3630051 130.589436,36.5313552 131.097643,36.5313552 L131.097643,41.0768097 C130.250842,41.2451599 129.573232,41.4135101 128.726431,41.4135101 C127.710017,41.4135101 126.863216,41.2451599 126.355009,40.7401094 C125.847012,40.2350589 125.508207,39.5616582 125.338805,38.8882576 L125.338805,37.5414562 C124.492004,38.7199074 123.306397,39.7300084 121.951389,40.4034091 C120.59638,41.0768097 119.07197,41.4135101 117.547559,41.4135101 Z M145.325337,36.6997054 C145.833333,36.6997054 146.34154,36.5313552 146.849747,36.3630051 C147.357744,36.1946549 147.865951,35.8579545 148.374158,35.6896044 C148.882155,35.352904 149.22096,35.0162037 149.559764,34.5111532 C149.898569,34.1744529 150.237163,33.6694024 150.406566,33.1643519 L150.406566,28.1138468 C150.237163,27.4404461 149.898569,26.9353956 149.559764,26.4303451 C148.712753,25.4202441 147.865951,24.7468434 146.680345,24.2417929 C146.172138,24.0734428 145.664141,23.9050926 144.986532,23.9050926 C144.139731,23.9050926 143.462121,24.0734428 142.784722,24.4101431 C142.107113,24.7468434 141.429714,25.2518939 141.090909,25.9252946 C140.582702,26.5986953 140.243897,27.272096 139.905303,27.9454966 C139.566498,28.7872475 139.566498,29.4606481 139.566498,30.302399 C139.566498,31.1441498 139.735901,31.9859007 140.074706,32.8276515 C140.413299,33.5010522 140.752105,34.1744529 141.260312,34.8478535 C141.768308,35.352904 142.445918,35.8579545 143.123317,36.1946549 C143.631524,36.6997054 144.478325,36.6997054 145.325337,36.6997054 Z M143.970328,41.4135101 C142.61532,41.4135101 141.260312,41.0768097 139.905303,40.5717592 C138.719697,40.0667087 137.53388,39.2249579 136.687079,38.2148569 C135.840278,37.2047559 134.993266,36.0263047 134.654461,34.6795034 C134.146465,33.332702 133.80766,31.8175505 133.977062,30.302399 C133.977062,28.7872475 134.146465,27.272096 134.654461,26.0936448 C135.162668,24.7468434 135.840278,23.5683923 136.687079,22.5582913 C137.53388,21.5481903 138.550294,20.7064394 139.735901,20.2013678 C140.921507,19.6963173 142.276515,19.359617 143.631524,19.359617 C145.155934,19.359617 146.680345,19.6963173 147.865951,20.5380682 C149.051557,21.2114899 150.067761,22.2215909 150.74537,23.5683923 L150.74537,11.4471591 L155.826599,11.4471591 L155.826599,34.8478535 C155.826599,35.352904 155.996002,35.8579545 156.165404,36.0263047 C156.334807,36.1946549 156.673611,36.3630051 157.181608,36.3630051 L157.181608,40.9084596 C156.165404,41.0768097 155.487794,41.2451599 154.810395,41.2451599 C153.794192,41.2451599 153.116582,41.0768097 152.439183,40.5717592 C151.761574,40.0667087 151.422769,39.3933081 151.422769,38.7199074 L151.253577,37.3731061 C150.575968,38.7199074 149.390362,39.7300084 148.035354,40.4034091 C146.849747,41.0768097 145.325337,41.4135101 143.970328,41.4135101 Z M176.659933,28.6188973 C176.49053,27.1037458 175.982534,25.7569444 174.96612,24.7468434 C173.949916,23.7367424 172.594908,23.2316919 171.239899,23.2316919 C169.88489,23.2316919 168.529882,23.7367424 167.513678,24.7468434 C167.005471,25.2518939 166.666667,25.7569444 166.328072,26.4303451 C165.989268,27.1037458 165.819865,27.7771465 165.819865,28.6188973 L176.659933,28.6188973 Z M171.070496,41.4135101 C169.376683,41.4135101 167.852483,41.0768097 166.497475,40.5717592 C165.142466,40.0667087 163.95665,39.2249579 162.940446,38.2148569 C161.924242,37.2047559 161.246633,36.0263047 160.738636,34.6795034 C160.230429,33.332702 159.891625,31.9859007 159.891625,30.4707491 C159.891625,28.9555976 160.230429,27.6087963 160.738636,26.2619949 C161.246633,24.9151936 161.924242,23.7367424 162.940446,22.7266414 C163.95665,21.7165404 165.142466,20.8747895 166.497475,20.369718 C167.852483,19.6963173 169.376683,19.5279672 171.239899,19.5279672 C172.933712,19.5279672 174.458123,19.8646675 175.813131,20.369718 C177.16814,20.8747895 178.353746,21.7165404 179.369949,22.7266414 C180.386364,23.7367424 181.063763,24.9151936 181.57197,26.2619949 C182.079966,27.6087963 182.249369,28.9555976 182.249369,30.302399 C182.249369,30.6390993 182.249369,30.9757996 182.249369,31.3125 C182.249369,31.6492004 182.249369,31.8175505 182.079966,32.1542509 L165.650463,32.1542509 C165.650463,32.9960017 165.989268,33.6694024 166.328072,34.342803 C167.005471,35.5212542 168.021675,36.5313552 169.376683,37.0364057 C170.054293,37.2047559 170.731692,37.3731061 171.409302,37.3731061 C172.425505,37.3731061 173.611111,37.0364057 174.458123,36.5313552 C175.474327,36.0263047 176.151936,35.352904 176.49053,34.5111532 L181.233165,35.8579545 C180.386364,37.5414562 179.200547,38.7199074 177.506944,39.8983586 C175.474327,40.9084596 173.441919,41.4135101 171.070496,41.4135101 Z M184.281986,26.4303451 C184.281986,24.7468434 184.620581,22.8949916 185.29819,21.2114899 C185.975589,19.5279672 186.822601,18.0128157 188.008207,16.6660143 C189.193813,15.319213 190.718224,14.1407618 192.412037,13.4673611 C194.10585,12.6256103 196.138258,12.2889099 198.340278,12.2889099 C201.050294,12.2889099 203.252105,12.7939605 205.284722,13.9724116 C207.147727,15.1508628 208.672138,16.6660143 209.688342,18.5178662 L205.453914,21.5481903 C205.11532,20.8747895 204.607113,20.0330177 204.098906,19.5279672 C203.590909,19.0229167 203.082702,18.5178662 202.405303,18.1811658 C201.727693,17.8444655 201.219697,17.6761153 200.372685,17.5077652 C199.695286,17.339415 199.017677,17.339415 198.340278,17.339415 C196.985269,17.339415 195.630261,17.6761153 194.613847,18.1811658 C193.597643,18.6862163 192.750842,19.5279672 192.073232,20.369718 C191.395833,21.2114899 190.887626,22.3899411 190.548822,23.4000421 C190.210017,24.5784933 190.040825,25.5885943 190.040825,26.7670455 C190.040825,28.1138468 190.210017,29.292298 190.718224,30.4707491 C191.057029,31.6492004 191.734428,32.6593014 192.412037,33.5010522 C193.089436,34.342803 194.10585,35.1845539 195.122054,35.6896044 C196.138258,36.1946549 197.323864,36.5313552 198.50947,36.5313552 C199.187079,36.5313552 199.864688,36.5313552 200.542087,36.3630051 C201.897096,36.0263047 203.252105,35.352904 204.268308,34.1744529 C204.776515,33.6694024 205.284722,32.9960017 205.623317,32.1542509 L210.196549,34.8478535 C209.688342,35.8579545 209.010943,36.8680556 208.164141,37.7098064 C207.31713,38.5515572 206.300926,39.2249579 205.284722,39.7300084 C204.268308,40.2350589 203.082702,40.7401094 201.897096,41.0768097 C200.71149,41.4135101 199.525884,41.5818603 198.340278,41.5818603 C196.30766,41.5818603 194.444444,41.0768097 192.750842,40.2350589 C191.057029,39.3933081 189.532618,38.2148569 188.347012,36.8680556 C187.161406,35.5212542 186.144991,33.8377525 185.467592,32.1542509 C184.789983,30.1340488 184.281986,28.282197 184.281986,26.4303451 Z M217.649411,30.4707491 C217.649411,31.4808502 217.817761,32.322601 218.156566,32.9960017 C218.49537,33.8377525 218.834175,34.5111532 219.343434,35.0162037 C220.359848,36.1946549 221.715067,36.8680556 223.238636,36.8680556 C224.762206,36.8680556 226.287879,36.1946549 227.133838,35.0162037 C227.643097,34.5111532 227.981903,33.8377525 228.320707,32.9960017 C228.659512,32.1542509 228.827862,31.3125 228.827862,30.4707491 C228.827862,29.6289983 228.659512,28.7872475 228.320707,27.9454966 C227.981903,27.272096 227.643097,26.5986953 227.133838,25.9252946 C226.117424,24.7468434 224.762206,24.0734428 223.238636,24.0734428 C222.392677,24.0734428 221.715067,24.2417929 221.037458,24.5784933 C220.359848,24.9151936 219.850589,25.4202441 219.343434,25.9252946 C218.834175,26.5986953 218.49537,27.272096 218.156566,27.9454966 C217.817761,28.7872475 217.649411,29.6289983 217.649411,30.4707491 Z M223.238636,41.4135101 C221.544613,41.4135101 220.021044,41.0768097 218.49537,40.5717592 C217.140152,40.0667087 215.955387,39.2249579 214.938973,38.2148569 C213.922559,37.2047559 213.244949,36.0263047 212.737794,34.6795034 C212.228535,33.332702 211.889731,31.9859007 211.889731,30.4707491 C211.889731,28.9555976 212.228535,27.6087963 212.737794,26.2619949 C213.244949,24.9151936 213.922559,23.7367424 214.938973,22.7266414 C215.955387,21.7165404 217.140152,20.8747895 218.49537,20.369718 C219.850589,19.6963173 221.376263,19.5279672 223.238636,19.5279672 C224.93266,19.5279672 226.456229,19.8646675 227.811448,20.369718 C229.166667,20.8747895 230.351431,21.7165404 231.367845,22.7266414 C232.384259,23.7367424 233.061869,24.9151936 233.571128,26.2619949 C234.078283,27.6087963 234.417087,28.9555976 234.417087,30.4707491 C234.417087,31.8175505 234.078283,33.332702 233.571128,34.6795034 C233.061869,36.0263047 232.384259,37.2047559 231.367845,38.2148569 C230.351431,39.2249579 229.166667,40.0667087 227.811448,40.5717592 C226.456229,41.0768097 224.93266,41.4135101 223.238636,41.4135101 Z M257.790404,40.9084596 L252.371633,40.9084596 L252.371633,28.9555976 C252.371633,27.272096 252.032828,26.0936448 251.523569,25.2518939 C250.84596,24.4101431 250.170455,24.0734428 248.983586,24.0734428 C248.476431,24.0734428 247.967172,24.2417929 247.289562,24.4101431 C246.782408,24.5784933 246.104798,24.9151936 245.765993,25.2518939 C245.256734,25.5885943 244.749579,26.0936448 244.410774,26.5986953 C244.07197,27.1037458 243.733165,27.7771465 243.564815,28.4505471 L243.564815,40.7401094 L238.143939,40.7401094 L238.143939,19.8646675 L243.055556,19.8646675 L243.055556,23.7367424 C243.901515,22.3899411 244.917929,21.3798401 246.443603,20.5380682 C247.967172,19.6963173 249.661195,19.359617 251.523569,19.359617 C252.878788,19.359617 253.895202,19.5279672 254.743266,20.0330177 C255.589226,20.5380682 256.266835,21.2114899 256.60564,21.8848906 C257.114899,22.7266414 257.451599,23.5683923 257.622054,24.5784933 C257.790404,25.5885943 257.960859,26.5986953 257.960859,27.6087963 L257.790404,40.9084596 Z M282.350589,40.9084596 L276.931818,40.9084596 L276.931818,28.9555976 C276.931818,27.272096 276.593014,26.0936448 276.083754,25.2518939 C275.406145,24.4101431 274.728535,24.0734428 273.543771,24.0734428 C273.034512,24.0734428 272.527357,24.2417929 271.849747,24.4101431 C271.340488,24.5784933 270.664983,24.9151936 270.326178,25.2518939 C269.816919,25.5885943 269.309764,26.0936448 268.97096,26.5986953 C268.632155,27.1037458 268.29335,27.7771465 268.122895,28.4505471 L268.122895,40.7401094 L262.53367,40.7401094 L262.53367,19.8646675 L267.445286,19.8646675 L267.445286,23.7367424 C268.29335,22.3899411 269.309764,21.3798401 270.833333,20.5380682 C272.356903,19.6963173 274.050926,19.359617 275.915404,19.359617 C277.270623,19.359617 278.287037,19.5279672 279.132996,20.0330177 C279.978956,20.5380682 280.656566,21.2114899 280.99537,21.8848906 C281.50463,22.7266414 281.843434,23.5683923 282.011784,24.5784933 C282.182239,25.5885943 282.350589,26.5986953 282.350589,27.6087963 L282.350589,40.9084596 Z M302.506313,28.6188973 C302.337963,27.1037458 301.828704,25.7569444 300.812289,24.7468434 C299.795875,23.7367424 298.442761,23.2316919 297.087542,23.2316919 C295.732323,23.2316919 294.377105,23.7367424 293.36069,24.7468434 C292.851431,25.2518939 292.512626,25.7569444 292.173822,26.4303451 C291.837121,27.1037458 291.666667,27.7771465 291.666667,28.6188973 L302.506313,28.6188973 Z M296.917087,41.4135101 C295.223064,41.4135101 293.699495,41.0768097 292.344276,40.5717592 C290.989057,40.0667087 289.804293,39.2249579 288.787879,38.2148569 C287.771465,37.2047559 287.093855,36.0263047 286.584596,34.6795034 C286.077441,33.332702 285.738636,31.9859007 285.738636,30.4707491 C285.738636,28.9555976 286.077441,27.6087963 286.584596,26.2619949 C287.093855,24.9151936 287.771465,23.7367424 288.787879,22.7266414 C289.804293,21.7165404 290.989057,20.8747895 292.344276,20.369718 C293.699495,19.6963173 295.223064,19.5279672 297.087542,19.5279672 C298.781566,19.5279672 300.305135,19.8646675 301.660354,20.369718 C303.015572,20.8747895 304.200337,21.7165404 305.216751,22.7266414 C306.233165,23.7367424 306.910774,24.9151936 307.417929,26.2619949 C307.927188,27.6087963 308.095539,28.9555976 308.095539,30.302399 C308.095539,30.6390993 308.095539,30.9757996 308.095539,31.3125 C308.095539,31.6492004 308.095539,31.8175505 307.927188,32.1542509 L291.498317,32.1542509 C291.498317,32.9960017 291.837121,33.6694024 292.173822,34.342803 C292.851431,35.5212542 293.867845,36.5313552 295.223064,37.0364057 C295.900673,37.2047559 296.578283,37.3731061 297.255892,37.3731061 C298.272307,37.3731061 299.457071,37.0364057 300.305135,36.5313552 C301.321549,36.0263047 301.999158,35.352904 302.337963,34.5111532 L307.079125,35.8579545 C306.233165,37.5414562 305.048401,38.7199074 303.354377,39.8983586 C301.321549,40.9084596 299.288721,41.4135101 296.917087,41.4135101 Z M309.960017,30.4707491 C309.960017,28.9555976 310.298822,27.6087963 310.805976,26.2619949 C311.315236,24.9151936 311.992845,23.7367424 313.007155,22.7266414 C314.023569,21.7165404 315.210438,20.8747895 316.565657,20.369718 C317.920875,19.6963173 319.444444,19.5279672 321.306818,19.5279672 C323.678451,19.5279672 325.542929,20.0330177 327.234848,21.0431397 C328.928872,22.0532408 330.115741,23.4000421 330.961701,24.9151936 L325.711279,26.5986953 C325.204125,25.9252946 324.694865,25.2518939 323.848906,24.7468434 C323.000842,24.4101431 322.154882,24.0734428 321.306818,24.0734428 C320.460859,24.0734428 319.783249,24.2417929 319.10564,24.5784933 C318.42803,24.9151936 317.920875,25.2518939 317.411616,25.9252946 C316.904461,26.4303451 316.565657,27.272096 316.226852,27.9454966 C315.888047,28.7872475 315.717592,29.6289983 315.717592,30.4707491 C315.717592,31.3125 315.888047,32.1542509 316.226852,32.9960017 C316.565657,33.8377525 316.904461,34.5111532 317.411616,35.0162037 C317.920875,35.5212542 318.42803,36.0263047 319.10564,36.3630051 C319.783249,36.6997054 320.460859,36.8680556 321.306818,36.8680556 C322.323232,36.8680556 323.171296,36.6997054 324.017256,36.1946549 C324.86532,35.6896044 325.372475,35.1845539 325.711279,34.342803 L330.961701,36.0263047 C330.284091,37.7098064 329.099327,38.8882576 327.405303,40.0667087 C325.711279,41.0768097 323.678451,41.5818603 321.306818,41.5818603 C319.614899,41.5818603 318.089226,41.2451599 316.565657,40.7401094 C315.210438,40.2350589 314.023569,39.3933081 313.007155,38.3832071 C311.992845,37.3731061 311.315236,36.1946549 310.805976,34.8478535 C310.298822,33.332702 309.960017,31.8175505 309.960017,30.4707491 Z M347.053872,39.8983586 C346.376263,40.2350589 345.359848,40.5717592 344.343434,40.9084596 C343.32702,41.2451599 342.140152,41.4135101 340.955387,41.4135101 C340.277778,41.4135101 339.431818,41.2451599 338.754209,41.0768097 C338.076599,40.9084596 337.56734,40.5717592 337.060185,40.2350589 C336.550926,39.7300084 336.212121,39.2249579 335.873317,38.5515572 C335.534512,37.8781566 335.366162,37.0364057 335.366162,36.1946549 L335.366162,24.0734428 L332.487374,24.0734428 L332.487374,19.8646675 L335.366162,19.8646675 L335.366162,12.9623106 L340.784933,12.9623106 L340.784933,19.8646675 L345.189394,19.8646675 L345.189394,24.0734428 L340.784933,24.0734428 L340.784933,34.342803 C340.784933,35.0162037 340.955387,35.6896044 341.294192,35.8579545 C341.632996,36.1946549 342.140152,36.3630051 342.817761,36.3630051 C343.32702,36.3630051 344.00463,36.1946549 344.511784,36.0263047 C345.021044,35.8579545 345.528198,35.6896044 345.867004,35.5212542 L347.053872,39.8983586 Z" id="Shape"></path>
            <path d="M47.2561027,11.4482955 L32.0122054,20.7074916 C29.1327862,22.5593434 27.2695707,25.7579966 27.2695707,29.125 L27.2695707,46.8017677 C27.2695707,48.9903198 29.6409933,50.3371212 31.5039983,49.1586701 L35.3996212,46.8017677 C37.9404461,45.2866162 39.4648569,42.5930135 39.4648569,39.7310606 L39.4648569,35.6906566 C39.4648569,32.3236532 41.1584596,29.125 44.2072812,27.4414983 L47.9335017,25.2529461 C50.3049242,23.7377946 51.8293348,21.2125421 51.8293348,18.3506524 L51.8293348,13.8051978 C51.4905303,11.6166456 49.1193182,10.2698443 47.2561027,11.4482955 Z M4.91193182,11.953346 L19.3089436,20.7074916 C22.3577441,22.5593434 24.2209596,25.9263468 24.2209596,29.4617004 L24.2209596,46.128367 C24.2209596,48.6536195 21.5109428,50.1687712 19.3089436,48.8219697 L16.4295455,47.138468 C13.8888889,45.6233165 12.1951178,42.7613636 12.1951178,39.7310606 L12.1951178,36.1957071 C12.1951178,32.6603535 10.3319865,29.2933502 7.28320707,27.4414983 L4.0650463,25.4212963 C1.52438973,23.9061448 0,21.0441919 0,18.1823022 L0,14.6469486 C0,12.1216961 2.71001683,10.6065446 4.91193182,11.953346 Z" id="Shape"></path>
            <path d="M46.0909091,3.75763889 C47.2767256,4.43103956 47.7847222,6.11454126 47.1073232,7.29299242 C46.9379209,7.62969278 46.5991162,7.96639308 46.0909091,8.30309343 L28.645202,18.4041035 C26.4433923,19.5825337 23.733165,19.5825337 21.7007576,18.4041035 L4.4243266,8.13474328 C2.73055556,7.12464227 2.73055556,4.59938975 4.4243266,3.58928872 L8.65873318,1.23237584 C11.3687711,-0.114425505 14.4175505,-0.114425505 16.9582071,1.23237584 L20.6844908,3.25256734 C23.5639731,4.93606904 27.1207913,4.93606904 30.1696128,3.25256734 L34.0652357,1.06402567 C36.4364478,-0.282775673 39.315867,-0.282775673 41.8564815,1.06402567 C41.6872895,1.23237584 46.0909091,3.75763889 46.0909091,3.75763889 Z" id="Path"></path>
        </g>
    </g>
</svg>