<?xml version="1.0" encoding="UTF-8"?>
<svg width="148px" height="60px" viewBox="0 0 148 60" version="1.1" xmlns="http://www.w3.org/2000/svg" xmlns:xlink="http://www.w3.org/1999/xlink">
    <title>zcash-logo</title>
    <g id="Page-1" stroke="none" stroke-width="1" fill="none" fill-rule="evenodd">
        <g id="zcash-logo">
            <polygon id="Path" fill="#000000" fill-rule="nonzero" points="85.2665245 18.7547974 85.2665245 20.6353945 70.5671642 39.2750533 85.5735608 39.2750533 85.5735608 41.0916844 68.1876333 41.0916844 68.1876333 39.2110874 82.8869936 20.5714286 69.1855011 20.5714286 69.1855011 18.7547974"></polygon>
            <path d="M97.4328358,27.1727079 C96.7036247,26.4818763 95.6801706,26.1364606 94.3624733,26.1364606 C93.5053305,26.1236674 92.6481876,26.3283582 91.8933902,26.7377399 C91.2025586,27.1215352 90.5884861,27.6588486 90.1279318,28.2985075 C89.6545842,28.9637527 89.2835821,29.7057569 89.0660981,30.4989339 C88.5927505,32.1492537 88.5927505,33.8891258 89.0660981,35.5394456 C89.2963753,36.3326226 89.6545842,37.0746269 90.1279318,37.7398721 C90.6012793,38.3795309 91.2025586,38.9168443 91.8933902,39.3006397 C92.6481876,39.7100213 93.5053305,39.9147122 94.3624733,39.8891258 C94.9509595,39.8891258 95.5394456,39.7739872 96.0895522,39.54371 C96.6268657,39.3134328 97.1130064,38.9936034 97.5223881,38.5842217 C97.9445629,38.1620469 98.3027719,37.6759062 98.5586354,37.1257996 C98.8272921,36.5501066 99.0063966,35.9232409 99.0575693,35.2835821 L101.027719,35.2835821 C100.759062,37.2409382 100.042644,38.7761194 98.8656716,39.8635394 C97.6886994,40.9509595 96.1918977,41.5010661 94.3624733,41.5010661 C93.1343284,41.5010661 92.0469083,41.2707889 91.1002132,40.8358209 C90.1791045,40.4136461 89.3603412,39.7867804 88.7078891,39.0063966 C88.0426439,38.2132196 87.54371,37.2921109 87.2366738,36.3070362 C86.5714286,34.1577825 86.5714286,31.8550107 87.2366738,29.7057569 C87.54371,28.7206823 88.0426439,27.7995736 88.7078891,27.0063966 C89.3603412,26.2260128 90.1791045,25.5991471 91.1002132,25.1641791 C92.0469083,24.7036247 93.1343284,24.4733475 94.3624733,24.4733475 C96.0895522,24.4733475 97.5607676,24.9339019 98.750533,25.8550107 C99.9530917,26.7761194 100.66951,28.1577825 100.886994,30.0127932 L98.9168443,30.0127932 C98.6609808,28.8102345 98.1620469,27.8635394 97.4328358,27.1727079 L97.4328358,27.1727079 Z" id="Path" fill="#000000" fill-rule="nonzero"></path>
            <path d="M103.867804,27.4541578 C104.17484,26.7889126 104.648188,26.2132196 105.223881,25.7654584 C105.82516,25.3176972 106.515991,24.9850746 107.245203,24.793177 C108.076759,24.575693 108.946695,24.4733475 109.803838,24.4861407 C110.520256,24.4861407 111.236674,24.5628998 111.940299,24.6908316 C112.618337,24.8187633 113.270789,25.0746269 113.846482,25.4584222 C114.434968,25.8550107 114.908316,26.4051173 115.228145,27.0447761 C115.586354,27.7228145 115.765458,28.6055437 115.765458,29.6801706 L115.765458,38.2515991 C115.765458,39.0447761 116.149254,39.4413646 116.916844,39.4413646 C117.134328,39.4413646 117.339019,39.4029851 117.54371,39.3134328 L117.54371,40.9637527 C117.313433,41.0021322 117.108742,41.0405117 116.929638,41.0533049 C116.712154,41.0788913 116.481876,41.0916844 116.264392,41.0788913 C115.855011,41.0916844 115.445629,41.0277186 115.061834,40.8742004 C114.780384,40.7590618 114.537313,40.554371 114.358209,40.2985075 C114.179104,40.0298507 114.076759,39.7228145 114.025586,39.4029851 C113.974414,39.0191898 113.948827,38.6481876 113.948827,38.2643923 L113.884861,38.2643923 C113.552239,38.750533 113.19403,39.2110874 112.810235,39.6588486 C112.452026,40.0554371 112.042644,40.4008529 111.594883,40.6695096 C111.121535,40.9509595 110.597015,41.1684435 110.059701,41.2963753 C109.394456,41.4498934 108.703625,41.5266525 108.012793,41.5138593 C107.296375,41.5138593 106.592751,41.424307 105.901919,41.2452026 C105.275053,41.0788913 104.686567,40.7974414 104.187633,40.4008529 C103.688699,40.0042644 103.304904,39.5053305 103.036247,38.9296375 C102.742004,38.2643923 102.601279,37.5479744 102.614072,36.8187633 C102.614072,35.6929638 102.869936,34.8102345 103.36887,34.1833689 C103.89339,33.5309168 104.571429,33.0319829 105.351812,32.7249467 C106.247335,32.3795309 107.181237,32.1364606 108.140725,32.021322 C109.176972,31.880597 110.21322,31.7526652 111.287846,31.6375267 C111.710021,31.5991471 112.06823,31.5479744 112.38806,31.4840085 C112.66951,31.4328358 112.938166,31.3176972 113.168443,31.1513859 C113.385928,30.9850746 113.552239,30.7675906 113.654584,30.5117271 C113.782516,30.1663113 113.833689,29.8081023 113.820896,29.4498934 C113.820896,28.7846482 113.705757,28.2345416 113.488273,27.8123667 C113.283582,27.4029851 112.963753,27.0447761 112.579957,26.8017058 C112.170576,26.5458422 111.710021,26.3667377 111.236674,26.2899787 C110.69936,26.1876333 110.149254,26.1492537 109.599147,26.1492537 C108.345416,26.1492537 107.321962,26.4434968 106.528785,27.0447761 C105.735608,27.6460554 105.326226,28.5927505 105.275053,29.9104478 L103.304904,29.9104478 C103.317697,29.0533049 103.522388,28.2217484 103.867804,27.4541578 L103.867804,27.4541578 Z M113.71855,32.2643923 C113.590618,32.4946695 113.347548,32.6609808 113.002132,32.7633262 C112.695096,32.8528785 112.375267,32.9296375 112.06823,32.9808102 C111.236674,33.1215352 110.379531,33.2622601 109.484009,33.3646055 C108.665245,33.466951 107.846482,33.6332623 107.066098,33.8763326 C106.400853,34.0682303 105.78678,34.4008529 105.26226,34.8614072 C104.788913,35.2835821 104.558635,35.8976546 104.558635,36.6908316 C104.545842,37.1513859 104.648188,37.6119403 104.852878,38.021322 C105.044776,38.4051173 105.313433,38.750533 105.646055,39.0191898 C105.991471,39.3006397 106.375267,39.5181237 106.797441,39.6588486 C107.232409,39.7995736 107.680171,39.8763326 108.140725,39.8763326 C108.869936,39.8763326 109.599147,39.761194 110.302772,39.5309168 C110.968017,39.3134328 111.569296,38.9808102 112.10661,38.533049 C113.19403,37.6119403 113.808102,36.2430704 113.782516,34.8102345 L113.782516,32.2515991 L113.71855,32.2643923 Z" id="Shape" fill="#000000" fill-rule="nonzero"></path>
            <path d="M128.673774,28.0938166 C128.45629,27.6588486 128.136461,27.2750533 127.752665,26.9808102 C127.356077,26.6865672 126.908316,26.4690832 126.422175,26.3411514 C125.897655,26.2004264 125.360341,26.1364606 124.823028,26.1364606 C124.375267,26.1364606 123.927505,26.1876333 123.492537,26.2771855 C123.057569,26.3667377 122.635394,26.5202559 122.251599,26.750533 C121.880597,26.9552239 121.573561,27.249467 121.343284,27.6076759 C121.100213,28.0042644 120.985075,28.4648188 120.997868,28.9253731 C120.985075,29.3219616 121.100213,29.7057569 121.33049,30.0383795 C121.547974,30.3454158 121.842217,30.6012793 122.162047,30.8059701 C122.507463,31.0234542 122.878465,31.1897655 123.249467,31.3176972 C123.646055,31.4584222 124.017058,31.5607676 124.34968,31.6503198 L126.972281,32.238806 C127.547974,32.3283582 128.110874,32.4818763 128.648188,32.6865672 C129.185501,32.891258 129.671642,33.1855011 130.119403,33.54371 C130.554371,33.901919 130.91258,34.3496802 131.168443,34.8614072 C131.449893,35.4371002 131.590618,36.0639659 131.577825,36.7036247 C131.577825,37.5735608 131.373134,38.3283582 130.976546,38.9424307 C130.592751,39.54371 130.06823,40.0682303 129.454158,40.4520256 C128.814499,40.8486141 128.110874,41.130064 127.36887,41.2835821 C126.614072,41.4498934 125.859275,41.5394456 125.091684,41.5394456 C123.198294,41.5394456 121.663113,41.0916844 120.486141,40.196162 C119.309168,39.3006397 118.643923,37.8678038 118.464819,35.8848614 L120.434968,35.8848614 C120.52452,37.2153518 121.010661,38.2260128 121.89339,38.9040512 C122.776119,39.5820896 123.876333,39.9147122 125.19403,39.9147122 C125.692964,39.9147122 126.191898,39.8635394 126.678038,39.761194 C127.176972,39.6588486 127.663113,39.4797441 128.098081,39.2238806 C128.520256,38.9808102 128.891258,38.6609808 129.172708,38.2643923 C129.466951,37.8422175 129.607676,37.3432836 129.594883,36.8443497 C129.607676,36.4221748 129.50533,36 129.30064,35.641791 C129.095949,35.3091684 128.827292,35.0405117 128.507463,34.8230277 C128.149254,34.5927505 127.765458,34.4136461 127.36887,34.2729211 C126.946695,34.1321962 126.511727,34.0042644 126.063966,33.901919 L123.530917,33.3390192 C122.916844,33.1855011 122.328358,32.9808102 121.739872,32.750533 C121.228145,32.5458422 120.754797,32.2771855 120.319829,31.9317697 C119.923241,31.6119403 119.590618,31.2025586 119.360341,30.7420043 C119.117271,30.1918977 119.002132,29.6034115 119.014925,29.0021322 C118.989339,28.2601279 119.181237,27.54371 119.565032,26.9040512 C119.923241,26.3283582 120.409382,25.8422175 120.985075,25.4968017 C121.586354,25.1385928 122.251599,24.869936 122.942431,24.7164179 C123.646055,24.5501066 124.362473,24.4605544 125.078891,24.4605544 C125.846482,24.4477612 126.614072,24.5628998 127.343284,24.7675906 C128.021322,24.9594883 128.648188,25.2921109 129.185501,25.7398721 C129.722814,26.1876333 130.157783,26.7377399 130.452026,27.3646055 C130.784648,28.0810235 130.963753,28.8614072 130.989339,29.641791 L129.01919,29.641791 C129.031983,29.1172708 128.904051,28.5799574 128.673774,28.0938166 L128.673774,28.0938166 Z" id="Path" fill="#000000" fill-rule="nonzero"></path>
            <path d="M136.055437,18.7547974 L136.055437,27.7356077 L136.119403,27.7356077 C136.503198,26.750533 137.206823,25.9189765 138.115139,25.3688699 C139.061834,24.7803838 140.162047,24.4605544 141.275053,24.4733475 C142.400853,24.4733475 143.347548,24.6140725 144.102345,24.9083156 C144.80597,25.1641791 145.432836,25.5863539 145.93177,26.1492537 C146.405117,26.7121535 146.73774,27.3773987 146.904051,28.1066098 C147.095949,28.9637527 147.198294,29.8336887 147.185501,30.7036247 L147.185501,41.0916844 L145.215352,41.0916844 L145.215352,31.0234542 C145.215352,30.3837953 145.151386,29.7313433 145.023454,29.1044776 C144.908316,28.554371 144.690832,28.0170576 144.371002,27.5565032 C144.051173,27.108742 143.616205,26.750533 143.104478,26.5202559 C142.567164,26.2643923 141.914712,26.1492537 141.121535,26.1492537 C140.392324,26.1364606 139.675906,26.2771855 139.010661,26.5714286 C138.409382,26.8400853 137.884861,27.2366738 137.449893,27.7356077 C137.002132,28.2473348 136.66951,28.8486141 136.452026,29.4882729 C136.208955,30.1918977 136.06823,30.9466951 136.055437,31.6886994 L136.055437,41.1044776 L134.085288,41.1044776 L134.085288,18.7547974 L136.055437,18.7547974 Z" id="Path" fill="#000000" fill-rule="nonzero"></path>
            <path d="M29.9872068,4.98933902 C16.196162,4.98933902 4.97654584,16.2089552 4.97654584,29.9872068 C4.97654584,43.7654584 16.196162,54.9978678 29.9872068,54.9978678 C43.7782516,54.9978678 54.9978678,43.7910448 54.9978678,30 C54.9978678,16.2089552 43.7782516,4.98933902 29.9872068,4.98933902 Z M29.9872068,53.6034115 C16.9509595,53.6034115 6.38379531,43.0362473 6.38379531,30 C6.38379531,16.9637527 16.9509595,6.38379531 29.9872068,6.38379531 C43.0234542,6.38379531 53.5906183,16.9509595 53.5906183,29.9872068 C53.5906183,43.0234542 43.0234542,53.6034115 29.9872068,53.6034115 Z" id="Shape"></path>
            <path d="M29.9872068,6.38379531 C16.9509595,6.38379531 6.38379531,16.9509595 6.38379531,29.9872068 C6.38379531,43.0234542 16.9509595,53.6034115 29.9872068,53.6034115 C43.0234542,53.6034115 53.5906183,43.0362473 53.5906183,30 C53.5906183,16.9637527 43.0234542,6.38379531 29.9872068,6.38379531 Z M40.6695096,20.6609808 L38.3667377,23.5906183 L28.0042644,37.8550107 L40.6695096,37.8550107 L40.6695096,43.9061834 L32.4946695,43.9061834 L32.4946695,48.9083156 L31.8933902,48.9083156 L31.8933902,48.9339019 L28.0810235,48.9339019 L28.0810235,48.9083156 L27.4797441,48.9083156 L27.4797441,43.9061834 L19.3049041,43.9061834 L19.3049041,39.3390192 L21.6076759,36.4093817 L31.9701493,22.1449893 L19.3049041,22.1449893 L19.3049041,16.0938166 L27.4797441,16.0938166 L27.4797441,11.0660981 L32.4946695,11.0660981 L32.4946695,16.0810235 L40.6695096,16.0810235 L40.6695096,20.6609808 Z" id="Shape" fill="#F4B728" fill-rule="nonzero"></path>
            <path d="M29.9872068,0.0383795309 C13.4712154,0.0383795309 0.0383795309,13.4712154 0.0383795309,29.9872068 C0.0383795309,46.5031983 13.4712154,59.9360341 29.9872068,59.9360341 C46.5031983,59.9360341 59.9360341,46.5031983 59.9360341,29.9872068 C59.9360341,13.4712154 46.5031983,0.0383795309 29.9872068,0.0383795309 Z M29.9872068,54.9978678 C16.196162,54.9978678 4.97654584,43.7782516 4.97654584,29.9872068 C4.97654584,16.196162 16.196162,4.98933902 29.9872068,4.98933902 C43.7782516,4.98933902 54.9978678,16.2089552 54.9978678,30 C54.9978678,43.7910448 43.7782516,54.9978678 29.9872068,54.9978678 Z M32.4946695,16.0938166 L40.6695096,16.0938166 L40.6695096,20.6609808 L28.0042644,37.8550107 L40.6695096,37.8550107 L40.6695096,43.9061834 L32.4946695,43.9061834 L32.4946695,48.9083156 L27.4797441,48.9083156 L27.4797441,43.9061834 L19.3049041,43.9061834 L19.3049041,39.3390192 L31.9701493,22.1449893 L19.3049041,22.1449893 L19.3049041,16.0938166 L27.4797441,16.0938166 L27.4797441,11.0660981 L32.4946695,11.0660981 L32.4946695,16.0938166 Z" id="Shape" fill="#231F20" fill-rule="nonzero"></path>
        </g>
    </g>
</svg>