<?xml version="1.0" encoding="UTF-8"?>
<svg width="22px" height="24px" viewBox="0 0 22 24" version="1.1" xmlns="http://www.w3.org/2000/svg" xmlns:xlink="http://www.w3.org/1999/xlink">
    <title>backup-key-with-highlight</title>
    <g id="Page-1" stroke="none" stroke-width="1" fill="none" fill-rule="evenodd">
        <g id="backup-key-with-highlight">
            <path d="M0.5,3.775 L0.5,11.412 C0.560187291,16.5811415 3.84330359,21.1620854 8.719,22.88 L9.84,23.294 C10.5888827,23.5690162 11.4111173,23.5690162 12.16,23.294 L13.281,22.88 C18.1566964,21.1620854 21.4398127,16.5811415 21.5,11.412 L21.5,3.775 C21.4979462,3.16169526 21.1305531,2.60863883 20.566,2.369 C17.5367936,1.10465396 14.2823297,0.468798533 11,0.5 C7.71767025,0.468798533 4.46320636,1.10465396 1.434,2.369 C0.869446947,2.60863883 0.502053839,3.16169526 0.5,3.775 Z" id="Path" stroke="#A6A6A6"></path>
            <path d="M17.5,5.5 L15.5,5.5 L11.146,9.854 C9.38520008,9.05914634 7.3079248,9.63634289 6.20959114,11.2256421 C5.11125748,12.8149412 5.30576726,14.9621241 6.67182156,16.3281784 C8.03787587,17.6942327 10.1850588,17.8887425 11.7743579,16.7904089 C13.3636571,15.6920752 13.9408537,13.6147999 13.146,11.854 L17.5,7.5 L17.5,5.5 Z" id="Path" stroke="#189DDF"></path>
            <circle id="Oval" stroke="#189DDF" cx="9.5" cy="13.5" r="1.25"></circle>
        </g>
    </g>
</svg>