<?xml version="1.0" encoding="UTF-8"?>
<svg width="24px" height="24px" viewBox="0 0 24 24" version="1.1" xmlns="http://www.w3.org/2000/svg" xmlns:xlink="http://www.w3.org/1999/xlink">
    <title>client-key-with-highlight</title>
    <g id="Page-1" stroke="none" stroke-width="1" fill="none" fill-rule="evenodd">
        <g id="client-key-with-highlight">
            <path d="M10.5,15 L10.5,14 C10.5,11.2385763 8.26142375,9 5.5,9 C2.73857625,9 0.5,11.2385763 0.5,14 L0.5,17.5 L3,17.5 L3.5,23.5 L7.5,23.5 L8,17.5 L9,17.5" id="Path" stroke="#A6A6A6"></path>
            <circle id="Oval" stroke="#A6A6A6" cx="5.5" cy="4" r="3.5"></circle>
            <path d="M16.405,20.231 C15.9168106,20.7190607 15.1254143,20.7189911 14.6373107,20.2308446 C14.1492072,19.7426982 14.1492072,18.9513018 14.6373107,18.4631554 C15.1254143,17.9750089 15.9168106,17.9749393 16.405,18.463 C16.892759,18.9514105 16.892759,19.7425895 16.405,20.231 Z" id="Path" stroke="#189DDF"></path>
            <path d="M19.048,17.942 L23.353,13.647 C23.4470807,13.5532132 23.5,13.4258425 23.5,13.293 L23.5,12 C23.5,11.7238576 23.2761424,11.5 23,11.5 L21.7,11.5 C21.5720263,11.5 21.4489089,11.5489931 21.356,11.637 L16.927,15.821 C15.1641587,15.0741623 13.1192885,15.6811699 12.0494423,17.2688742 C10.979596,18.8565786 11.1847847,20.9797483 12.5388718,22.3331973 C13.8929589,23.6866463 16.0162252,23.8908342 17.603425,22.8202397 C19.1906249,21.7496451 19.7966686,19.7044891 19.049,17.942 L19.048,17.942 Z" id="Path" stroke="#189DDF"></path>
        </g>
    </g>
</svg>