<?xml version="1.0" encoding="UTF-8"?>
<svg width="24px" height="24px" viewBox="0 0 24 24" version="1.1" xmlns="http://www.w3.org/2000/svg" xmlns:xlink="http://www.w3.org/1999/xlink">
    <title>bitgo-key-with-highlight</title>
    <g id="Page-1" stroke="none" stroke-width="1" fill="none" fill-rule="evenodd">
        <g id="bitgo-key-with-highlight">
            <path d="M16.405,20.231 C15.9168106,20.7190607 15.1254143,20.7189911 14.6373107,20.2308446 C14.1492072,19.7426982 14.1492072,18.9513018 14.6373107,18.4631554 C15.1254143,17.9750089 15.9168106,17.9749393 16.405,18.463 C16.892759,18.9514105 16.892759,19.7425895 16.405,20.231 Z" id="Path" stroke="#189DDF"></path>
            <path d="M19.048,17.942 L23.5,13.5 L23.5,11.5 L21.5,11.5 L16.926,15.821 C15.1631587,15.0741623 13.1182885,15.6811699 12.0484423,17.2688742 C10.978596,18.8565786 11.1837847,20.9797483 12.5378718,22.3331973 C13.8919589,23.6866463 16.0152252,23.8908342 17.602425,22.8202397 C19.1896249,21.7496451 19.7956686,19.7044891 19.048,17.942 L19.048,17.942 Z" id="Path" stroke="#189DDF"></path>
            <path d="M7.5,23.5 L0.5,23.5 L0.5,9.5 C0.5,8.94771525 0.94771525,8.5 1.5,8.5 L6.5,8.5 C7.05228475,8.5 7.5,8.94771525 7.5,9.5 L7.5,23.5 Z" id="Path" stroke="#A6A6A6"></path>
            <path d="M6.5,8.5 L6.5,4.5 L14.8,0.812 C14.9543742,0.744624961 15.1322962,0.759503613 15.2733361,0.851582515 C15.414376,0.943661417 15.4995766,1.10056427 15.5,1.269 L15.5,12.5" id="Path" stroke="#A6A6A6"></path>
            <path d="M5.5,23.5 L5.5,21 C5.5,20.7238576 5.27614237,20.5 5,20.5 L3,20.5 C2.72385763,20.5 2.5,20.7238576 2.5,21 L2.5,23.5" id="Path" stroke="#A6A6A6"></path>
            <line x1="0.5" y1="11.5" x2="4.5" y2="11.5" id="Path" stroke="#A6A6A6"></line>
            <line x1="12.5" y1="5.5" x2="15.5" y2="5.5" id="Path" stroke="#A6A6A6"></line>
            <line x1="10.5" y1="7.5" x2="15.5" y2="7.5" id="Path" stroke="#A6A6A6"></line>
            <line x1="0.5" y1="13.5" x2="2.5" y2="13.5" id="Path" stroke="#A6A6A6"></line>
            <line x1="8.5" y1="3.611" x2="8.5" y2="0.5" id="Path" stroke="#A6A6A6"></line>
            <line x1="7.5" y1="23.5" x2="11.5" y2="23.5" id="Path" stroke="#A6A6A6"></line>
        </g>
    </g>
</svg>