<?xml version="1.0" encoding="UTF-8"?>
<svg width="601px" height="118px" viewBox="0 0 601 118" version="1.1" xmlns="http://www.w3.org/2000/svg" xmlns:xlink="http://www.w3.org/1999/xlink">
    <title>coindesk-seeklogo.com</title>
    <g id="Page-1" stroke="none" stroke-width="1" fill="none" fill-rule="evenodd">
        <g id="coindesk-seeklogo.com" fill-rule="nonzero">
            <path d="M53.1,59 C53.1,62.2 55.6,64.7 58.8,64.7 C62,64.7 64.5,62.2 64.5,59 C64.5,55.8 62,53.3 58.8,53.3 C55.6,53.4 53.1,55.9 53.1,59 M100.9,53.4 C97.7,53.4 95.2,55.9 95.2,59.1 C95.2,62.3 97.7,64.8 100.9,64.8 C104.1,64.8 106.6,62.3 106.6,59.1 C106.6,55.9 104.1,53.4 100.9,53.4 M100.9,96.2 C97.7,96.2 95.2,98.7 95.2,101.9 C95.2,105.1 97.7,107.6 100.9,107.6 C104.1,107.6 106.6,105.1 106.6,101.9 C106.6,98.7 104.1,96.2 100.9,96.2" id="Shape" fill="#F3BB2D"></path>
            <path d="M113,6.3 C107.3,-0.8 97.1,-1.1 91.1,4.5 L90.4,5.2 L89,6.3 C83.3,10.9 74.8,10.5 69.5,5.2 L69.5,4.8 C67.7,3 65.3,1.6 62.8,0.9 C62.4,0.9 61.7,0.5 61.4,0.5 L55.7,0.5 C55.3,0.5 55,0.5 54.6,0.9 L53.9,0.9 C53.5,0.9 53.2,1.3 52.8,1.3 C52.8,1.3 52.4,1.3 52.4,1.7 C52,1.7 51.7,2.1 51.3,2.1 C51.3,2.1 50.9,2.1 50.9,2.5 C50.5,2.9 50.2,2.9 49.8,3.2 C49.8,3.2 49.4,3.2 49.4,3.6 C49,4 48.7,4 48.3,4.3 L47.9,4.7 L47.2,5.4 L45.8,6.5 C40.1,11.1 31.6,10.7 26.7,5.4 C26.7,5.4 26.3,5.4 26.3,5 L25.6,4.3 C23.5,2.5 21,1.1 18.2,0.8 L11.8,0.8 C11.8,1.2 11.4,1.2 11.1,1.5 L11,1.5 C9.2,2.2 7.5,2.9 6,4.3 L5.6,4.7 L4.5,5.8 C3.1,7.2 2.4,9 1.7,10.4 C1.7,10.8 1.3,11.1 1.3,11.5 C1.3,11.9 0.9,12.2 0.9,12.9 C0.5,15.4 0.5,17.9 1.3,20.3 C1.3,20.7 1.7,21 1.7,21.4 L1.7,21.8 C1.7,22.2 2.1,22.5 2.1,22.9 C2.5,23.3 2.5,23.6 2.8,24.3 C3.5,24.7 4.2,25.4 4.6,25.7 L5.3,26.4 L6,27.1 C11.3,32.4 11.3,41.6 5.6,47.3 C4.9,48 3.8,49.1 3.5,49.8 C3.1,50.2 3.1,50.5 2.8,51.2 L2.8,51.6 C2.4,52 2.4,52.3 2.1,52.7 L2.1,53.1 C2.1,53.5 1.7,53.8 1.7,54.2 L1.7,54.6 C1.7,55 1.7,55.3 1.3,55.7 L1.3,61 C1.3,61.4 1.3,61.7 1.7,62.1 L1.7,62.5 C2.4,65 3.8,67.5 5.9,69.6 C11.6,75.3 11.6,84.5 5.9,90.1 L5.5,90.5 L4.8,91.2 L4.8,91.6 C4.4,92 4.1,92.3 4.1,92.7 C4.1,92.7 4.1,93.1 3.7,93.1 C3.3,93.5 3.3,93.8 3,94.2 L2.6,94.6 C2.6,95 2.2,95 2.2,95.3 C2.2,95.6 1.8,95.7 1.8,96 C1.8,96.4 1.8,96.4 1.4,96.7 C0.7,98.1 0.3,99.9 0.3,101.3 L0.3,104.1 C0.7,105.2 0.7,106.2 1.4,106.9 C1.4,107.3 1.8,107.6 1.8,107.6 C1.8,107.6 1.8,108 2.2,108 C2.2,108.4 2.6,108.7 2.6,109.1 C2.6,109.1 2.6,109.5 3,109.5 C3.4,110.2 3.7,110.6 4.1,110.9 C4.1,110.9 4.1,111.3 4.5,111.3 C4.5,111.3 4.5,111.7 4.9,111.7 C4.9,112.1 5.3,112.1 5.3,112.1 L5.7,112.5 C6.1,112.9 6.4,112.9 6.4,113.2 L6.8,113.6 C6.8,113.6 7.2,113.6 7.2,114 C7.6,114.4 7.9,114.7 8.3,114.7 C8.3,114.7 8.7,114.7 8.7,115.1 C9.1,115.5 9.4,115.5 9.8,115.8 L10,115.8 C10.4,116.2 10.7,116.2 11.4,116.2 C11.8,116.2 12.5,116.6 12.8,116.6 L13.2,116.6 C13.6,116.6 13.9,116.6 14.3,117 L17.5,117 C18.6,117 19.3,116.6 20.3,116.6 L20.7,116.6 C21.1,116.6 21.4,116.2 21.8,116.2 L22,116.2 C22.4,116.2 22.7,115.8 23.1,115.8 L23.5,115.8 C24.2,115.4 25.3,114.7 26,114.4 L27.1,113.3 L27.5,112.9 C33.2,106.9 42.4,106.9 48,112.9 C54.4,119.6 65,119.3 71,111.8 C75.2,106.5 75.2,98.7 71,93 C65.3,85.9 55.1,85.6 49.1,91.2 L48.4,91.9 L47,93 C41.3,97.6 32.8,97.2 27.5,91.9 L26.8,91.2 L25.7,89.8 C21.1,84.1 21.5,75.6 26.8,70.3 C30,67.5 31.4,63.6 31.4,59.7 L31.4,58.6 C31.4,55.1 30,51.5 27.2,49 C27.2,48.6 26.8,48.6 26.8,48.3 L25.7,46.9 C21.1,41.2 21.5,32.7 26.8,27.4 L27.2,27 L27.6,26.6 C33.3,20.6 42.5,20.6 48.1,26.6 L48.5,27 L48.9,27.4 L49.6,28.1 C50,28.1 50,28.5 50.3,28.5 C50.6,28.5 50.7,28.9 51,28.9 C51.3,28.9 51.4,29.3 51.7,29.3 C52,29.3 52.1,29.7 52.4,29.7 C52.7,29.7 52.8,30.1 53.1,30.1 C53.4,30.1 53.5,30.5 53.8,30.5 C54.1,30.5 54.2,30.5 54.5,30.9 C54.9,30.9 54.9,30.9 55.2,31.3 L61.2,31.3 C61.6,31.3 61.9,31.3 62.3,30.9 L63,30.9 C63.4,30.9 63.7,30.5 64.1,30.5 L64.5,30.5 C64.9,30.5 65.2,30.1 65.9,29.8 C67.3,29.1 68.7,28 69.8,27 L70.2,26.6 C75.9,20.6 85.1,20.6 90.7,26.6 C96.7,33.7 107.7,33.3 113.4,25.9 C117.2,19.4 117.2,11.6 113,6.3" id="Path" fill="#F3BB2D"></path>
            <path d="M193.7,50.2 C191.6,48.1 189.8,46.7 187.3,45.6 C185.2,44.5 182.7,43.8 179.5,43.8 C176.7,43.8 173.8,44.5 171.7,45.6 C169.6,46.7 167.8,48.1 166.4,50.2 C165,52 163.9,54.1 163.2,56.6 C162.5,59.1 162.1,61.6 162.1,64 C162.1,66.4 162.5,69 163.5,71.4 C164.2,73.9 165.6,75.6 167,77.4 C168.4,79.2 170.5,80.6 172.7,81.6 C174.8,82.7 177.3,83 180.1,83 C183.3,83 185.8,82.3 187.9,81.2 C190,80.1 192.1,78.7 193.9,76.6 L201.3,84.4 C198.5,87.6 195.3,89.7 191.7,91.1 C188.2,92.5 184.3,93.2 180,93.2 C175.8,93.2 171.5,92.5 168,91.1 C164.5,89.7 161.3,87.6 158.8,85.1 C156.3,82.6 154.2,79.4 152.8,75.9 C151.4,72.4 150.7,68.1 150.7,63.9 C150.7,59.7 151.4,55.4 152.8,51.9 C154.2,48.4 156.3,45.2 158.8,42.3 C161.3,39.8 164.5,37.7 168,36.3 C171.5,34.9 175.8,34.2 180,34.2 C184.2,34.2 188.1,34.9 191.7,36.3 C195.6,37.7 198.8,40.2 201.6,43 L193.7,50.2 M217.7,63.3 C217.7,66.1 218.1,69 219.1,71.1 C219.8,73.6 221.2,75.7 222.6,77.5 C224,79.3 226.1,80.7 228.3,81.4 C230.4,82.5 233.3,82.8 236.1,82.8 C238.9,82.8 241.4,82.4 243.9,81.4 C246,80.3 248.1,78.9 249.6,77.5 C251,75.7 252.4,73.6 253.1,71.1 C253.8,68.6 254.5,66.1 254.5,63.3 C254.5,60.5 254.1,57.6 253.1,55.5 C252.4,53 251,50.9 249.6,49.1 C248.2,47.3 246.1,45.9 243.9,45.2 C241.8,44.1 238.9,43.8 236.1,43.8 C233.3,43.8 230.8,44.2 228.3,45.2 C226.2,46.3 224.1,47.7 222.6,49.1 C221.2,50.9 219.8,53 219.1,55.5 C218.4,58 217.7,60.5 217.7,63.3 Z M206.4,63.3 C206.4,59.1 207.1,55.2 208.5,51.6 C209.9,48.1 212,44.9 214.9,42 C217.7,39.2 220.6,37 224.5,35.6 C228,34.2 231.9,33.1 236.2,33.1 C240.5,33.1 244.3,33.8 247.9,35.6 C251.4,37 254.6,39.1 257.5,42 C260.3,44.8 262.1,48 263.9,51.6 C265.3,55.1 266,59 266,63.3 C266,67.5 265.3,71.4 263.9,75 C262.5,78.5 260.4,81.7 257.5,84.6 C254.7,87.4 251.8,89.2 247.9,91 C244.4,92.4 240.5,93.5 236.2,93.5 C232,93.5 228.1,92.8 224.5,91 C221,89.6 217.8,87.5 214.9,84.6 C212.1,81.8 210.3,78.9 208.5,75 C207.5,71.4 206.4,67.5 206.4,63.3 Z M276.9,92 L287.5,92 L287.5,35.4 L276.9,35.4 L276.9,92 Z M274.4,14.8 C274.4,12.7 275.1,10.9 276.5,9.1 C277.9,7.7 279.7,6.6 281.8,6.6 C283.9,6.6 285.7,7.3 287.1,9.1 C288.5,10.5 289.2,12.6 289.2,14.8 C289.2,17 288.5,18.7 287.1,20.5 C285.7,21.9 283.9,23 281.8,23 C279.7,23 277.9,22.3 276.5,20.5 C275.1,19 274.4,16.9 274.4,14.8 Z M302.3,35.3 L313,35.3 L313,44.1 L313.4,44.1 C314.8,40.9 316.9,38.4 320.5,36.7 C323.7,34.9 327.6,33.9 332.2,33.9 C335,33.9 337.5,34.3 340,35.3 C342.5,36 344.6,37.4 346.4,39.2 C348.2,41 349.6,43.1 351,45.9 C352.1,48.7 352.8,51.9 352.8,55.8 L352.8,92.3 L342,92.3 L342,58.7 C342,56.2 341.6,53.7 340.9,52 C340.2,50.2 339.1,48.5 338.1,47.4 C337,46.3 335.6,45.3 333.9,44.9 C332.5,44.5 330.7,44.2 328.9,44.2 C326.8,44.2 324.7,44.6 322.9,45.3 C321.1,46 319.4,47.1 317.9,48.8 C316.5,50.2 315.4,52.3 314.7,54.8 C314,57.3 313.6,60.1 313.6,63.3 L313.6,92.7 L303,92.7 L303,35.4 M391.9,83.1 C394.7,83.1 397.2,82.7 399.7,81.7 C402.2,80.6 403.9,79.2 405.7,77.5 C407.1,75.7 408.5,73.6 409.2,71.1 C409.9,68.6 410.6,66.1 410.6,63 C410.6,60.2 410.2,57.3 409.2,54.9 C408.5,52.4 407.1,50.3 405.7,48.5 C403.9,46.7 402.2,45.3 399.7,44.3 C397.2,43.2 394.7,42.9 391.9,42.9 C389.1,42.9 386.6,43.3 384.1,44.3 C381.6,45.4 379.9,46.8 378.1,48.5 C376.7,50.3 375.3,52.4 374.6,54.9 C373.9,57.4 373.2,59.9 373.2,63 C373.2,65.8 373.6,68.7 374.6,71.1 C375.3,73.6 376.7,75.7 378.1,77.5 C379.5,79.3 381.6,80.7 384.1,81.7 C386.2,82.4 389.1,83.1 391.9,83.1 Z M421.3,91.6 L410.7,91.6 L410.7,83.5 L410.3,83.5 C408.2,86.7 405.3,88.8 401.8,90.6 C398.3,92.4 394.4,93.1 390.5,93.1 C386.3,93.1 382,92.4 378.5,91 C375,89.6 371.8,87.5 369.3,84.6 C366.8,81.8 364.7,78.6 363.6,75 C362.2,71.5 361.5,67.6 361.5,63.3 C361.5,59 362.2,55.2 363.6,51.3 C365,47.8 366.8,44.6 369.3,41.7 C371.8,38.9 375,36.7 378.5,35.3 C382,33.9 385.9,33.2 390.5,33.2 C394.4,33.2 398.3,33.9 401.8,35.7 C405.3,37.5 408.2,39.9 409.9,42.8 L410.3,42.8 L410.3,0.3 L420.9,0.3 L420.9,91.6 L421.3,91.6 Z M475.4,58.7 C475.4,56.2 475,54.1 474.3,52 C473.6,49.9 472.5,48.1 471.1,46.7 C469.7,45.3 467.9,44.2 466.1,43.2 C464,42.5 461.9,41.8 459,41.8 C456.5,41.8 454,42.2 451.9,43.2 C449.8,44.3 448,45.3 446.2,47.1 C444.8,48.5 443.4,50.3 442.7,52.4 C442,54.5 441.3,56.3 441.3,58.1 L475.3,58.1 L475.4,58.7 Z M441.5,67.5 C441.5,70 442.2,72.1 443.3,74.2 C444.4,76.3 445.8,78.1 447.5,79.5 C449.3,80.9 451.4,82 453.5,82.7 C456,83.4 458.1,83.8 460.6,83.8 C463.8,83.8 467,83.1 469.4,81.3 C471.9,79.9 474,77.8 476.1,75.3 L484.2,81.7 C478.2,89.5 469.7,93.4 459.1,93.4 C454.5,93.4 450.6,92.7 447.1,91.3 C443.6,89.9 440.4,87.8 437.9,84.9 C435.4,82.1 433.3,79.2 432.2,75.3 C430.8,71.8 430.1,67.9 430.1,63.6 C430.1,59.4 430.8,55.5 432.2,51.9 C433.6,48.4 435.7,45.2 438.2,42.3 C440.7,39.5 443.9,37.7 447.4,35.9 C450.9,34.5 454.8,33.8 459.1,33.8 C464.1,33.8 468.3,34.5 471.8,36.3 C475.3,38.1 478.2,40.2 480.3,43 C482.4,45.8 484.2,49 485.3,52.6 C486.4,56.1 486.7,59.7 486.7,63.6 L486.7,67.5 L441.5,67.5 L441.5,67.5 Z M528.5,49.5 C527.1,48.1 525.7,46.7 523.9,45.6 C522.1,44.5 519.7,43.8 517.2,43.8 C514.7,43.8 512.6,44.5 510.5,45.6 C508.7,46.7 507.7,48.1 507.7,50.2 C507.7,52 508.4,53.4 509.5,54.1 C510.6,55.2 512,55.9 513.4,56.6 C514.8,57.3 516.6,57.7 518,58 C519.8,58.4 521.2,58.7 522.2,58.7 C524.3,59.4 526.8,59.8 528.6,60.8 C530.7,61.5 532.5,62.6 533.9,64 C535.3,65.4 536.4,66.8 537.4,68.6 C538.1,70.4 538.8,72.5 538.8,75.3 C538.8,78.5 538.1,81.3 536.7,83.4 C535.3,85.5 533.5,87.6 531.4,89.1 C529.3,90.6 526.8,91.6 524,92.3 C521.2,93 518.3,93.4 515.9,93.4 C511.3,93.4 507.1,92.7 503.5,91.3 C500,89.9 496.8,87.4 493.9,83.5 L502,76.8 C503.8,78.6 505.5,80 507.7,81.4 C509.9,82.8 512.3,83.5 515.5,83.5 C516.9,83.5 518.3,83.5 519.7,83.1 C521.1,82.7 522.2,82.4 523.2,81.7 C524.3,81 525,80.3 525.7,79.6 C526.4,78.5 526.8,77.5 526.8,76.4 C526.8,75 526.4,73.6 525.4,72.5 C524.3,71.4 523.3,70.7 521.9,70 C520.5,69.3 519.1,68.9 517.7,68.6 L513.5,67.5 C511.4,66.8 508.9,66.4 507.1,65.7 C505,65 503.2,63.9 501.8,62.9 C500.4,61.8 499,60.1 497.9,58.3 C496.8,56.5 496.5,54.1 496.5,51.6 C496.5,48.8 497.2,45.9 498.3,43.8 C499.4,41.7 501.1,39.9 503.3,38.5 C505.4,37.1 507.5,36 510,35.3 C512.5,34.6 515.3,34.2 517.8,34.2 C521.7,34.2 525.2,34.9 528.8,36.3 C532.3,37.7 535.2,40.2 537.3,43.4 L528.5,49.5 M549.1,1.7 L559.7,1.7 L559.7,59 L583.8,34.9 L598.3,34.9 L572.5,60.4 L600.8,90.8 L585.6,90.8 L559.8,61.8 L559.8,90.8 L549.2,90.8 L549.2,1.7" id="Shape" fill="#fff"></path>
        </g>
    </g>
</svg>
