<?xml version="1.0" encoding="UTF-8"?>
<svg width="206px" height="50px" viewBox="0 0 206 50" version="1.1" xmlns="http://www.w3.org/2000/svg" xmlns:xlink="http://www.w3.org/1999/xlink">
    <title>nexo-logo</title>
    <g id="Page-1" stroke="none" stroke-width="1" fill="none" fill-rule="evenodd">
        <g id="nexo-logo" fill-rule="nonzero">
            <path d="M57.9147059,41.6663234 L43.9819119,49.6755881 C43.8102941,49.7667647 43.6189706,49.8144119 43.4245587,49.8144119 C43.2301472,49.8144119 43.0386766,49.7667647 42.8672059,49.6755881 L14.4674853,33.3329412 L14.4674853,16.6432353 L57.9147059,41.6663234 Z" id="Path" fill="#2853C3"></path>
            <path d="M43.4225,0 L57.3554412,8.00925 C57.5247059,8.10938234 57.6651472,8.25161766 57.7627941,8.42202941 C57.8604413,8.59244119 57.9120587,8.78520587 57.9126472,8.98147059 L57.9126472,41.6666175 L43.4225,33.3332353 L43.4225,0 Z" id="Path" fill="#1A4199"></path>
            <polygon id="Path" fill="#2853C3" points="43.4248528 0 28.9579412 8.33332353 43.4248528 16.6666177"></polygon>
            <polygon id="Path" fill="#3CA9E5" points="14.4674853 49.9997059 28.9576471 41.6664706 14.4674853 33.3330881"></polygon>
            <path d="M15.0242647,0.323926472 L43.4239706,16.6664706 L43.4239706,33.3330881 L0,8.33317647 L13.9328235,0.323926472 C14.0979412,0.226113235 14.2864559,0.174488235 14.4785294,0.174488235 C14.6706029,0.174488235 14.8591177,0.226113235 15.0242647,0.323926472 Z" id="Path" fill="#3CA9E5"></path>
            <path d="M0,8.33308825 L0,41.0182353 C0.000573552941,41.2145587 0.0522283825,41.4072059 0.149914706,41.5776472 C0.2476,41.7480881 0.387975,41.8902941 0.557313234,41.9904413 L14.4901471,49.9997059 L14.4901471,16.6432353 L0,8.33308825 Z" id="Path" fill="#60BEFF"></path>
            <path d="M93.675,11.5739706 C90.8908825,11.6831765 88.1976472,12.5914853 85.9189706,14.1897059 L85.9189706,12.5230441 C85.9191175,12.4572059 85.9057353,12.3920441 85.8798528,12.3315147 C85.8538234,12.2709706 85.8158825,12.2163235 85.7680881,12.1708677 C85.7202941,12.1254118 85.6638234,12.0901029 85.6019119,12.0670735 C85.54,12.0440588 85.4741175,12.0337941 85.4080881,12.0369265 L79.9511766,12.0369265 C79.8217647,12.0369265 79.6977941,12.0881471 79.6063234,12.1793088 C79.5148528,12.2704706 79.4635294,12.3941177 79.4635294,12.5230441 L79.4635294,40.4397059 C79.4635294,40.6545587 79.5491175,40.8605881 79.7014706,41.0125 C79.8539706,41.1645587 80.0605881,41.2498528 80.2761766,41.2498528 L85.0830881,41.2498528 C85.2985294,41.2498528 85.5052941,41.1645587 85.6577941,41.0125 C85.8101472,40.8605881 85.8957353,40.6545587 85.8957353,40.4397059 L85.8957353,26.2730883 C85.8967647,25.1139706 86.1408825,23.9679412 86.6125,22.9085294 C87.0842647,21.8491177 87.7730881,20.8998529 88.6347059,20.1214706 C89.4963234,19.3432353 90.5117647,18.7532353 91.6157353,18.3895588 C92.7197059,18.0257353 93.8877941,17.8961765 95.045,18.0091177 C97.1341175,18.2495588 99.0595588,19.2535294 100.449265,20.8269118 C101.838971,22.4002941 102.594118,24.4314706 102.568677,26.5276471 L102.568677,40.4164706 C102.568677,40.6314706 102.654412,40.8375 102.806765,40.9894119 C102.959265,41.1413234 103.165883,41.2267647 103.381471,41.2267647 L108.211471,41.2267647 C108.318235,41.2267647 108.423971,41.2057353 108.5225,41.165 C108.621177,41.1242647 108.710735,41.0647059 108.786177,40.9894119 C108.861765,40.9141175 108.921617,40.8248528 108.962353,40.7266175 C109.003235,40.6282353 109.024265,40.5229413 109.024265,40.4164706 L109.024265,26.2730883 C109.016177,24.2938235 108.609117,22.3364706 107.827353,20.5172059 C107.045441,18.6977941 105.904706,17.0538235 104.472941,15.6826471 C103.041029,14.3114412 101.347353,13.2411471 99.4923528,12.5353383 C97.6375,11.8295294 95.6591175,11.5026029 93.675,11.5739706 Z" id="Path" fill="#2853C3"></path>
            <path d="M141.649853,25.0463235 C141.327647,21.3977941 139.656912,17.9989706 136.962059,15.5094117 C134.267353,13.0199117 130.740735,11.6173529 127.066765,11.5740588 L126.370147,11.5740588 C124.610588,11.6451617 122.879118,12.0374559 121.261471,12.7314706 L120.913235,12.8935 L120.773823,12.8935 C118.206471,14.0701471 116.038088,15.9660294 114.533088,18.35 C113.028088,20.7339706 112.251471,23.5030882 112.298088,26.3194117 L112.298088,26.5972059 C112.492941,30.4833823 114.168088,34.1491175 116.981765,36.8463234 C119.795294,39.5433825 123.535147,41.0686766 127.438383,41.1110297 L135.821323,41.1110297 C136.038971,41.1110297 136.248235,41.0264706 136.404412,40.8751472 C136.560441,40.7239706 136.651177,40.5177941 136.657206,40.3008825 L136.657206,35.625 C136.651177,35.4079412 136.560441,35.2019119 136.404412,35.0505881 C136.248235,34.8992647 136.038971,34.8147059 135.821323,34.8147059 L127.066765,34.8147059 C125.293971,34.7391175 123.586912,34.1239706 122.175441,33.0520587 C120.763823,31.9802941 119.715588,30.5030882 119.171618,28.8194117 L140.674559,28.8194117 C140.941471,28.8073529 141.193088,28.6916177 141.375294,28.4969117 C141.557647,28.3022059 141.656177,28.0439706 141.649853,27.7777941 L141.649853,25.1388235 C141.652941,25.1080882 141.652941,25.0770588 141.649853,25.0463235 Z M134.683383,23.4952941 L119.194853,23.4952941 C119.560883,22.4577941 120.128677,21.5025 120.865883,20.6842647 C121.603088,19.8658823 122.495147,19.2007353 123.490735,18.7267647 L123.815883,18.5185294 C125.058529,18.0477941 126.394559,17.8733823 127.717059,18.0092647 C129.277941,18.1792647 130.759118,18.7839706 131.991177,19.7542647 C133.223235,20.7245588 134.156323,22.0210294 134.683383,23.4952941 Z" id="Shape" fill="#2853C3"></path>
            <path d="M169.888235,11.7128382 C169.811765,11.6445 169.713235,11.6067353 169.610294,11.6067353 C169.507353,11.6067353 169.407353,11.6445 169.330883,11.7128382 L159.044118,21.9905882 L148.897059,11.8748677 C148.861765,11.8354559 148.819118,11.8038971 148.770588,11.7822794 C148.722059,11.7606617 148.670588,11.7494706 148.617647,11.7494706 C148.564706,11.7494706 148.513235,11.7606617 148.464706,11.7822794 C148.416177,11.8038971 148.373529,11.8354559 148.339706,11.8748677 L144.205588,15.9952941 C144.137059,16.0716177 144.099265,16.1705882 144.099265,16.2729412 C144.099265,16.3754412 144.137059,16.4744117 144.205588,16.5507353 L154.352941,26.6664706 L143.973383,37.0369119 C143.933971,37.0716175 143.902206,37.1144119 143.880588,37.1622059 C143.858823,37.2101472 143.847647,37.2620588 143.847647,37.3147059 C143.847647,37.3672059 143.858823,37.4191175 143.880588,37.4670587 C143.902206,37.515 143.933971,37.5576472 143.973383,37.5925 L148.014706,41.6201472 C148.060294,41.67 148.114706,41.7098528 148.177941,41.7370587 C148.239706,41.7642647 148.305883,41.7783825 148.373529,41.7783825 C148.441177,41.7783825 148.508823,41.7642647 148.570588,41.7370587 C148.632353,41.7098528 148.688235,41.67 148.733823,41.6201472 L158.951471,31.4582353 L169.076471,41.5507353 C169.154412,41.6257353 169.257353,41.6676472 169.366177,41.6676472 C169.475,41.6676472 169.577941,41.6257353 169.655883,41.5507353 L173.766177,37.4304413 C173.805883,37.3955881 173.838235,37.3529412 173.858823,37.305 C173.880883,37.2570587 173.892647,37.2051472 173.892647,37.1526472 C173.892647,37.1 173.880883,37.0480881 173.858823,37.0002941 C173.838235,36.9523528 173.805883,36.9095588 173.766177,36.8748528 L163.642647,26.7822059 L173.929412,16.5045588 C173.969118,16.4697059 174,16.4270588 174.022059,16.3791177 C174.044118,16.3311765 174.054412,16.2792647 174.054412,16.2267647 C174.054412,16.1741177 174.044118,16.1222059 174.022059,16.0742647 C174,16.0264706 173.969118,15.9836765 173.929412,15.9489706 L169.888235,11.7128382 Z" id="Path" fill="#2853C3"></path>
            <path d="M190.532353,11.5741471 C187.532353,11.5512059 184.592647,12.4174265 182.086765,14.0628529 C179.580883,15.7082353 177.622059,18.0586765 176.460294,20.8157353 C175.297059,23.5727941 174.980883,26.6122059 175.554412,29.5480883 C176.127941,32.4839706 177.561765,35.1839706 179.677941,37.3054413 C181.792647,39.4267647 184.492647,40.8739706 187.433823,41.4630881 C190.375,42.0523528 193.426471,41.7569119 196.198529,40.6145588 C198.972059,39.4722059 201.341177,37.5342647 203.007353,35.0467647 C204.673529,32.5592647 205.560294,29.6345588 205.555915,26.6435294 C205.555915,22.6629412 203.976471,18.8439706 201.161765,16.0204412 C198.347059,13.1970588 194.525,11.5986029 190.532353,11.5741471 Z M190.532353,35.3935294 C188.791177,35.4164706 187.082353,34.9229413 185.625,33.9755881 C184.166177,33.0280881 183.022059,31.6697059 182.339706,30.0730883 C181.658823,28.4763235 181.467647,26.7135294 181.792647,25.0085294 C182.119118,23.3036765 182.945588,21.7338235 184.167647,20.4985294 C185.391177,19.2632353 186.954412,18.4182353 188.660294,18.0711765 C190.366177,17.7239706 192.136765,17.8904412 193.747059,18.5491177 C195.358823,19.2079412 196.736765,20.3292647 197.705883,21.7705883 C198.675,23.2119118 199.194118,24.9080883 199.194118,26.6435294 C199.163235,28.9242647 198.241177,31.1029412 196.623529,32.7157353 C195.005883,34.3285294 192.820588,35.3635294 190.532353,35.3935294 Z" id="Shape" fill="#2853C3"></path>
        </g>
    </g>
</svg>