<?xml version="1.0" encoding="UTF-8"?>
<svg width="278px" height="64px" viewBox="0 0 278 64" version="1.1" xmlns="http://www.w3.org/2000/svg" xmlns:xlink="http://www.w3.org/1999/xlink">
    <title>bitstamp-logo</title>
    <g id="Page-1" stroke="none" stroke-width="1" fill="none" fill-rule="evenodd">
        <g id="bitstamp-logo" fill-rule="nonzero">
            <g id="line" transform="translate(0.000000, 56.051469)" fill="#159E49">
                <polygon id="Fill-10" points="0 6.71691159 240.604405 6.71691159 240.604405 0.416911754 0 0.416911754"></polygon>
                <polygon id="Fill-11" points="257.280876 6.71691159 277.941169 6.71691159 277.941169 0.416911754 257.280876 0.416911754"></polygon>
            </g>
            <g id="text" fill="#333433">
                <path d="M46.8794105,46.9257341 L55.4955868,46.9257341 L55.4955868,14.4992643 L46.8794105,14.4992643 L46.8794105,46.9257341 Z M46.045587,5.14191163 C46.045587,3.65955873 46.5088223,2.45514699 47.5279399,1.43602937 C48.4544105,0.50955881 49.7514693,0.0463235282 51.2338222,0.0463235282 C52.8088221,0.0463235282 54.0132339,0.50955881 54.9397044,1.43602937 C55.866175,2.36249994 56.4220573,3.56691167 56.4220573,5.14191163 C56.4220573,6.62426453 55.958822,7.82867626 54.9397044,8.84779388 C54.0132339,9.77426445 52.7161751,10.2374997 51.2338222,10.2374997 C49.7514693,10.2374997 48.5470575,9.77426445 47.5279399,8.84779388 C46.5088223,7.92132332 46.045587,6.62426453 46.045587,5.14191163 Z" id="Shape"></path>
                <path d="M75.3220568,14.4066173 L84.1235272,14.4066173 L84.1235272,20.8919112 L75.3220568,20.8919112 L75.3220568,36.4566167 C75.3220568,37.8463225 75.6926451,38.9580872 76.5264686,39.7919107 C77.3602921,40.6257342 78.3794097,41.0889695 79.7691155,41.0889695 C80.9735273,41.0889695 82.3632331,40.9036754 83.845586,40.5330872 L84.9573507,46.9257341 C82.4558802,47.5742634 80.0470567,47.9448517 77.7308803,47.9448517 C76.1558803,47.9448517 74.6735274,47.6669105 73.3764686,47.2036752 C72.0794099,46.7404399 70.9676452,45.9992635 69.9485276,45.0727929 C69.022057,44.1463224 68.2808805,43.0345577 67.7249982,41.7374989 C67.1691159,40.4404401 66.9838218,39.0507343 66.9838218,37.4757343 L66.9838218,21.0772053 L61.0544101,21.0772053 L61.0544101,14.5919114 L66.9838218,14.5919114 L66.9838218,5.04926457 L75.2294098,5.04926457 L75.2294098,14.4066173 L75.3220568,14.4066173 Z" id="Path"></path>
                <path d="M89.2191153,23.3933817 C89.2191153,22.0036759 89.4970565,20.61397 90.1455858,19.4095583 C90.7941152,18.2051466 91.6279387,17.186029 92.6470564,16.2595584 C93.758821,15.4257349 95.0558798,14.6845584 96.5382327,14.2213232 C98.0205856,13.7580879 99.7808797,13.4801467 101.541174,13.4801467 C103.394115,13.4801467 105.339703,13.6654408 107.285291,14.036029 C109.230879,14.4066173 111.269115,14.9624996 113.30735,15.7036761 L111.454409,21.8183818 C109.879409,21.1698524 108.304409,20.7066171 106.729409,20.3360289 C105.154409,19.9654406 103.672056,19.7801465 102.28235,19.7801465 C100.799997,19.7801465 99.5955856,20.0580877 98.669115,20.7066171 C97.7426445,21.3551465 97.3720562,22.18897 97.3720562,23.3007347 C97.3720562,24.3198523 97.8352915,25.0610287 98.669115,25.524264 C99.5029385,25.9874993 100.522056,26.4507346 101.819115,26.8213228 C103.116174,27.191911 104.413233,27.5624993 105.895585,27.8404404 C107.377938,28.2110287 108.767644,28.766911 109.972056,29.5080875 C111.269115,30.2492639 112.288232,31.2683815 113.122056,32.4727933 C113.955879,33.769852 114.419115,35.4374991 114.419115,37.4757343 C114.419115,38.9580872 114.141173,40.255146 113.492644,41.5522048 C112.844115,42.7566165 112.010291,43.8683812 110.898526,44.7948518 C109.786762,45.7213223 108.489703,46.3698517 106.822056,46.9257341 C105.247056,47.3889693 103.486762,47.6669105 101.633821,47.6669105 C97.6499974,47.6669105 93.3882328,46.833087 88.9411741,45.0727929 L90.7014682,39.0507343 C94.4999975,40.6257342 97.9279386,41.3669107 100.985291,41.3669107 C102.560291,41.3669107 103.85735,40.9963224 104.783821,40.347793 C105.710291,39.6992637 106.173527,38.7727931 106.173527,37.5683814 C106.173527,36.5492637 105.710291,35.8080873 104.876468,35.2522049 C104.042644,34.6963226 103.023527,34.2330873 101.726468,33.8624991 C100.429409,33.4919109 99.1323503,33.1213227 97.6499974,32.7507344 C96.1676445,32.3801462 94.8705857,31.8242639 93.5735269,31.0830874 C92.2764681,30.341911 91.2573505,29.4154404 90.423527,28.2110287 C89.5897035,27.099264 89.2191153,25.431617 89.2191153,23.3933817" id="Path"></path>
                <path d="M131.744114,14.4066173 L140.545585,14.4066173 L140.545585,20.8919112 L131.744114,20.8919112 L131.744114,36.4566167 C131.744114,37.8463225 132.114702,38.9580872 132.948526,39.7919107 C133.782349,40.6257342 134.801467,41.0889695 136.191173,41.0889695 C137.395585,41.0889695 138.78529,40.9036754 140.267643,40.5330872 L141.379408,46.9257341 C138.877937,47.5742634 136.469114,47.9448517 134.152938,47.9448517 C132.577938,47.9448517 131.095585,47.6669105 129.798526,47.2036752 C128.501467,46.7404399 127.389703,45.9992635 126.370585,45.0727929 C125.351467,44.1463224 124.702938,43.0345577 124.147056,41.7374989 C123.591173,40.4404401 123.405879,39.0507343 123.405879,37.4757343 L123.405879,21.0772053 L117.476467,21.0772053 L117.476467,14.5919114 L123.405879,14.5919114 L123.405879,5.04926457 L131.651467,5.04926457 L131.651467,14.4066173 L131.744114,14.4066173 Z" id="Path"></path>
                <path d="M154.164702,37.012499 C154.164702,38.3095578 154.720584,39.4213225 155.739702,40.347793 C156.851466,41.2742636 158.148525,41.7374989 159.723525,41.7374989 C161.947055,41.7374989 163.707349,40.9963224 165.097054,39.6066166 C166.48676,38.2169108 167.13529,36.3639696 167.13529,34.1404403 L167.13529,32.1948521 C165.56029,31.7316168 163.799996,31.5463227 161.854407,31.5463227 C159.445584,31.5463227 157.592643,32.009558 156.202937,33.0286756 C154.905878,33.9551462 154.164702,35.344852 154.164702,37.012499 M146.104408,37.4757343 C146.104408,34.0477932 147.401467,31.3610286 149.995584,29.5080875 C152.589702,27.6551463 156.202937,26.7286758 160.927937,26.7286758 C161.947055,26.7286758 162.966172,26.8213228 163.98529,26.9139699 C165.004407,27.0066169 166.116172,27.191911 167.13529,27.3772052 L167.13529,25.6169111 C167.13529,23.9492641 166.579407,22.5595582 165.374996,21.5404406 C164.170584,20.521323 162.595584,19.9654406 160.557349,19.9654406 C157.314702,19.9654406 153.794114,20.7066171 149.995584,22.2816171 L147.864702,16.3522054 C152.497055,14.4992643 157.036761,13.6654408 161.483819,13.6654408 C163.522054,13.6654408 165.282349,13.943382 166.949996,14.5919114 C168.617643,15.1477937 170.007348,15.9816172 171.21176,17.0933819 C172.416172,18.1124995 173.342642,19.4095583 173.991172,20.8919112 C174.639701,22.3742641 175.010289,24.0419111 175.010289,25.8022052 L175.010289,39.0507343 C175.010289,39.7919107 175.195584,40.347793 175.566172,40.7183813 C175.93676,41.1816166 176.492642,41.3669107 177.233819,41.3669107 C177.604408,41.3669107 177.882348,41.3669107 178.252936,41.2742636 C178.530878,41.2742636 178.808819,41.1816166 178.901466,41.1816166 L179.457348,47.3889693 C178.716172,47.4816164 178.067642,47.6669105 177.326466,47.7595576 C176.585289,47.8522046 175.844113,47.8522046 175.010289,47.8522046 C173.342642,47.8522046 171.952937,47.4816164 170.748525,46.6477929 C169.544113,45.9066164 168.71029,44.7948518 168.154407,43.4051459 C166.764701,44.7948518 165.097054,45.9066164 163.33676,46.6477929 C161.483819,47.3889693 159.630878,47.7595576 157.592643,47.7595576 C155.924996,47.7595576 154.349996,47.4816164 152.96029,47.0183811 C151.570584,46.5551458 150.366172,45.8139694 149.347055,44.8874988 C148.327937,43.9610282 147.586761,42.9419106 147.030878,41.6448518 C146.382349,40.347793 146.104408,38.9580872 146.104408,37.4757343" id="Shape"></path>
                <path d="M184.274995,14.3139702 L190.945583,14.3139702 L191.964701,18.7610289 C193.26176,17.0933819 194.744112,15.7963231 196.597054,14.8698525 C198.449995,13.943382 200.395583,13.4801467 202.526465,13.4801467 C204.935289,13.4801467 206.973524,14.036029 208.826465,15.0551467 C210.586759,16.0742643 211.976465,17.5566172 212.902936,19.4095583 C214.385288,17.4639701 216.145583,15.9816172 218.091171,14.9624996 C220.036759,13.943382 222.167641,13.4801467 224.576465,13.4801467 C226.336759,13.4801467 227.911759,13.7580879 229.394112,14.3139702 C230.876464,14.8698525 232.173523,15.7036761 233.192641,16.8154407 C234.304406,17.8345584 235.138229,19.1316171 235.694111,20.61397 C236.249994,22.0963229 236.620582,23.6713229 236.620582,25.431617 L236.620582,46.9257341 L228.1897,46.9257341 L228.1897,26.8213228 C228.1897,24.9683817 227.633817,23.4860288 226.429406,22.2816171 C225.224994,21.1698524 223.742641,20.521323 221.8897,20.521323 C219.758818,20.521323 217.998524,21.2624994 216.608818,22.7448523 C215.219112,24.2272052 214.570583,26.0801464 214.570583,28.4889698 L214.570583,46.9257341 L206.1397,46.9257341 L206.1397,26.8213228 C206.1397,24.9683817 205.583818,23.4860288 204.472053,22.2816171 C203.360289,21.1698524 201.877936,20.521323 200.024995,20.521323 C197.801465,20.521323 196.041171,21.2624994 194.651465,22.7448523 C193.26176,24.2272052 192.61323,26.0801464 192.61323,28.4889698 L192.61323,46.9257341 L184.182348,46.9257341 L184.182348,14.3139702 L184.274995,14.3139702 L184.274995,14.3139702 Z" id="Path"></path>
                <path d="M268.676463,30.5272051 C268.676463,29.0448522 268.491169,27.6551463 268.027934,26.3580875 C267.657346,25.0610287 267.008816,23.9492641 266.26764,23.1154406 C265.526464,22.18897 264.69264,21.5404406 263.673522,20.9845583 C262.654405,20.4286759 261.54264,20.2433818 260.338228,20.2433818 C258.114699,20.2433818 256.354405,20.9845583 254.872052,22.5595582 C253.482346,24.0419111 252.74117,25.9874993 252.74117,28.3963228 L252.74117,32.7507344 C252.74117,33.9551462 252.926464,35.0669108 253.297052,35.9933814 C253.66764,37.012499 254.223523,37.8463225 254.872052,38.587499 C255.520581,39.3286754 256.354405,39.8845578 257.280876,40.255146 C258.207346,40.6257342 259.226464,40.8110283 260.338228,40.8110283 C261.54264,40.8110283 262.654405,40.5330872 263.673522,40.0698519 C264.69264,39.6066166 265.526464,38.8654401 266.26764,37.9389696 C267.008816,37.012499 267.564699,35.9007343 268.027934,34.6963226 C268.491169,33.4919109 268.676463,32.009558 268.676463,30.5272051 Z M244.588229,14.3139702 L251.258817,14.3139702 L252.277934,18.4830877 C253.482346,16.9080878 254.872052,15.7036761 256.632346,14.7772055 C258.39264,13.943382 260.338228,13.4801467 262.469111,13.4801467 C264.599993,13.4801467 266.545581,13.943382 268.398522,14.7772055 C270.158816,15.611029 271.733816,16.8154407 273.030875,18.2977936 C274.327934,19.7801465 275.347052,21.5404406 276.088229,23.6713229 C276.829404,25.7095581 277.199993,28.0257346 277.199993,30.5272051 C277.199993,33.0286756 276.829404,35.344852 276.088229,37.3830872 C275.347052,39.4213225 274.327934,41.2742636 273.030875,42.7566165 C271.733816,44.2389694 270.158816,45.4433811 268.398522,46.2772047 C266.638228,47.1110282 264.599993,47.5742634 262.469111,47.5742634 C260.523523,47.5742634 258.670581,47.2036752 257.095581,46.4624988 C255.427934,45.7213223 254.038229,44.6095576 252.926464,43.1272047 L252.926464,62.8610277 L244.588229,62.8610277 L244.588229,14.3139702 Z" id="Shape"></path>
                <path d="M28.3499992,38.587499 C27.0529405,39.8845578 25.2926464,40.4404401 23.069117,40.4404401 L12.6926467,40.4404401 L12.6926467,27.0066169 L23.069117,27.0066169 C25.1999993,27.0066169 26.9602934,27.6551463 28.3499992,28.8595581 C29.647058,30.0639698 30.2955874,31.7316168 30.2955874,33.677205 C30.3882345,35.7154402 29.7397051,37.3830872 28.3499992,38.587499 Z M12.6926467,8.84779388 L22.2352935,8.84779388 C24.1808817,8.84779388 25.7558817,9.40367622 27.0529405,10.608088 C28.3499992,11.7198526 28.9058816,13.2948526 28.9058816,15.1477937 C28.9058816,17.0007348 28.2573522,18.4830877 27.0529405,19.5948524 C25.7558817,20.7066171 24.1808817,21.2624994 22.2352935,21.2624994 L12.6926467,21.2624994 L12.6926467,8.84779388 Z M36.8735284,27.8404404 C35.4838226,25.8948523 33.6308815,24.5051464 31.3147051,23.6713229 C33.1676462,22.8374994 34.557352,21.6330877 35.6691167,19.9654406 C36.7808814,18.2977936 37.3367637,16.3522054 37.3367637,14.1286761 C37.3367637,12.368382 36.9661755,10.7933821 36.3176461,9.40367622 C35.6691167,7.92132332 34.6499991,6.71691159 33.4455873,5.69779397 C32.2411756,4.67867635 30.7588227,3.84485284 29.0911757,3.2889705 C27.4235287,2.73308816 25.5705876,2.45514699 23.5323523,2.45514699 L0,2.45514699 L0,8.3845586 L0,8.3845586 C3.6132352,8.3845586 6.48529395,11.3492644 6.48529395,14.9624996 C6.48529395,18.5757348 3.6132352,21.5404406 0,21.5404406 L0,26.9139699 L0,26.9139699 C3.6132352,26.9139699 6.48529395,29.8786757 6.48529395,33.4919109 L6.48529395,34.5110285 C6.48529395,38.1242637 3.6132352,41.0889695 0,41.0889695 L0,41.0889695 L0,47.0183811 L24.5514699,47.0183811 C26.6823522,47.0183811 28.5352934,46.7404399 30.2955874,46.0919105 C32.0558815,45.5360282 33.5382344,44.7022047 34.8352932,43.59044 C36.132352,42.4786753 37.1514696,41.1816166 37.799999,39.6992637 C38.5411754,38.2169108 38.9117637,36.5492637 38.9117637,34.6963226 C38.9117637,32.009558 38.2632343,29.7860286 36.8735284,27.8404404 Z" id="Shape"></path>
            </g>
        </g>
    </g>
</svg>